<svg width="92" height="96" viewBox="0 0 92 96" fill="none" xmlns="http://www.w3.org/2000/svg">
<path d="M48.0003 42.1667C59.1524 34.3333 69.522 27.675 69.522 16.9042C69.522 8.875 64.8263 3 57.3916 3C53.8698 3 50.3481 5.35 48.0003 9.07083C45.6524 5.35 42.1307 3 38.609 3C31.1742 3 26.4785 8.875 26.4785 16.9042C26.4785 27.675 36.8481 34.3333 48.0003 42.1667Z" stroke="#151A35" stroke-width="5" stroke-miterlimit="10" stroke-linecap="round" stroke-linejoin="round"/>
<path d="M36.2609 63.7085H59.9348C61.5 63.7085 62.8696 63.3168 64.0435 62.3376L79.3044 50.0001C84.1957 45.6918 89.087 50.3918 89.087 53.9168C89.087 56.4626 86.9348 58.2251 85.174 59.7918L67.5653 73.5001C66.3913 74.2835 65.6087 75.4585 61.6957 75.4585H38.2174C36.8479 75.4585 35.2827 76.4376 34.3044 77.4168L29.4131 82.3126" stroke="#151A35" stroke-width="5" stroke-miterlimit="10" stroke-linecap="round" stroke-linejoin="round"/>
<path d="M38.218 63.7085H57.0006C59.3484 63.7085 61.5006 62.3377 62.2832 60.1835C63.0658 58.6169 63.0658 56.8544 62.2832 55.2877C61.3049 53.3294 59.3484 51.7627 57.0006 51.7627H30.3919C27.4571 51.7627 24.718 53.5252 22.5658 55.6794L12.7832 65.471" stroke="#151A35" stroke-width="5" stroke-miterlimit="10" stroke-linecap="round" stroke-linejoin="round"/>
<path d="M3 67.625L8.86956 61.75L34.3043 87.2083L28.4348 93.0833" stroke="#151A35" stroke-width="5" stroke-miterlimit="10" stroke-linecap="round" stroke-linejoin="round"/>
</svg>
