<svg width="257" height="57" viewBox="0 0 257 57" fill="none" xmlns="http://www.w3.org/2000/svg">
<path d="M106.884 19.984V36H103.672V29.18H96.258V36H93.046V19.984H96.258V26.21H103.672V19.984H106.884ZM116.441 33.58C117.292 33.58 117.967 33.36 118.465 32.92C118.979 32.48 119.279 31.8713 119.367 31.094H122.667C122.594 32.106 122.315 33.008 121.831 33.8C121.347 34.592 120.643 35.2153 119.719 35.67C118.81 36.11 117.717 36.33 116.441 36.33C114.388 36.33 112.775 35.7653 111.601 34.636C110.443 33.492 109.863 31.8933 109.863 29.84C109.863 28.5347 110.127 27.3907 110.655 26.408C111.183 25.4107 111.924 24.648 112.877 24.12C113.845 23.5773 114.967 23.306 116.243 23.306C118.282 23.306 119.859 23.878 120.973 25.022C122.088 26.166 122.653 27.8087 122.667 29.95H113.119V30.016C113.119 31.1453 113.405 32.0253 113.977 32.656C114.564 33.272 115.385 33.58 116.441 33.58ZM116.243 26.056C115.378 26.056 114.659 26.3347 114.087 26.892C113.53 27.4347 113.215 28.2047 113.141 29.202H119.345C119.272 28.234 118.964 27.4713 118.421 26.914C117.879 26.342 117.153 26.056 116.243 26.056ZM137.695 23.636V36H134.505V32.106C134.388 33.558 133.955 34.6287 133.207 35.318C132.474 35.9927 131.477 36.33 130.215 36.33C129.057 36.33 128.045 36.0733 127.179 35.56C126.314 35.0467 125.639 34.306 125.155 33.338C124.686 32.3553 124.451 31.182 124.451 29.818C124.451 28.4687 124.701 27.3027 125.199 26.32C125.713 25.3373 126.402 24.5893 127.267 24.076C128.147 23.5627 129.13 23.306 130.215 23.306C131.447 23.306 132.437 23.6507 133.185 24.34C133.933 25.0147 134.373 26.0707 134.505 27.508V23.636H137.695ZM131.337 33.602C132.364 33.602 133.163 33.2647 133.735 32.59C134.322 31.9153 134.615 30.9987 134.615 29.84C134.615 28.652 134.322 27.7207 133.735 27.046C133.163 26.3713 132.364 26.034 131.337 26.034C130.252 26.034 129.372 26.3713 128.697 27.046C128.037 27.706 127.707 28.63 127.707 29.818C127.707 30.9913 128.045 31.9153 128.719 32.59C129.394 33.2647 130.267 33.602 131.337 33.602ZM144.287 18.4V36H141.097V18.4H144.287ZM153.548 33.404C154.046 33.404 154.538 33.3087 155.022 33.118V35.78C154.714 35.9413 154.332 36.0733 153.878 36.176C153.423 36.2787 152.961 36.33 152.492 36.33C151.084 36.33 150.028 35.9707 149.324 35.252C148.634 34.5187 148.29 33.3967 148.29 31.886V26.122H146.046V23.636H148.29V19.852H151.48V23.636H154.34V26.122H151.48V31.578C151.48 32.7953 152.169 33.404 153.548 33.404ZM164.671 23.306C165.947 23.306 166.937 23.6947 167.641 24.472C168.345 25.2347 168.697 26.3713 168.697 27.882V36H165.507V28.894C165.507 28.0433 165.309 27.3687 164.913 26.87C164.532 26.3713 163.945 26.122 163.153 26.122C162.361 26.122 161.701 26.386 161.173 26.914C160.66 27.442 160.403 28.146 160.403 29.026V36H157.213V18.4H160.403V28.168C160.403 26.584 160.792 25.3813 161.569 24.56C162.361 23.724 163.395 23.306 164.671 23.306ZM185.268 36.33C183.64 36.33 182.232 35.9853 181.044 35.296C179.871 34.6067 178.969 33.6387 178.338 32.392C177.707 31.1307 177.392 29.6713 177.392 28.014C177.392 26.342 177.7 24.8753 178.316 23.614C178.947 22.3527 179.849 21.3773 181.022 20.688C182.195 19.9987 183.596 19.654 185.224 19.654C187.439 19.654 189.184 20.1967 190.46 21.282C191.751 22.3527 192.484 23.9 192.66 25.924H189.316C189.125 24.8973 188.671 24.1053 187.952 23.548C187.233 22.976 186.309 22.69 185.18 22.69C183.772 22.69 182.672 23.1667 181.88 24.12C181.088 25.0733 180.692 26.3713 180.692 28.014C180.692 29.6567 181.095 30.9473 181.902 31.886C182.709 32.8247 183.816 33.294 185.224 33.294C186.324 33.294 187.219 33.0373 187.908 32.524C188.612 31.996 189.081 31.226 189.316 30.214H192.66C192 34.2913 189.536 36.33 185.268 36.33ZM201.369 33.58C202.22 33.58 202.895 33.36 203.393 32.92C203.907 32.48 204.207 31.8713 204.295 31.094H207.595C207.522 32.106 207.243 33.008 206.759 33.8C206.275 34.592 205.571 35.2153 204.647 35.67C203.738 36.11 202.645 36.33 201.369 36.33C199.316 36.33 197.703 35.7653 196.529 34.636C195.371 33.492 194.791 31.8933 194.791 29.84C194.791 28.5347 195.055 27.3907 195.583 26.408C196.111 25.4107 196.852 24.648 197.805 24.12C198.773 23.5773 199.895 23.306 201.171 23.306C203.21 23.306 204.787 23.878 205.901 25.022C207.016 26.166 207.581 27.8087 207.595 29.95H198.047V30.016C198.047 31.1453 198.333 32.0253 198.905 32.656C199.492 33.272 200.313 33.58 201.369 33.58ZM201.171 26.056C200.306 26.056 199.587 26.3347 199.015 26.892C198.458 27.4347 198.143 28.2047 198.069 29.202H204.273C204.2 28.234 203.892 27.4713 203.349 26.914C202.807 26.342 202.081 26.056 201.171 26.056ZM217.673 23.306C218.949 23.306 219.939 23.6947 220.643 24.472C221.347 25.2347 221.699 26.3713 221.699 27.882V36H218.509V28.894C218.509 28.0433 218.311 27.3687 217.915 26.87C217.534 26.3713 216.947 26.122 216.155 26.122C215.363 26.122 214.703 26.386 214.175 26.914C213.662 27.442 213.405 28.146 213.405 29.026V36H210.215V23.636H213.405V28.168C213.405 26.584 213.794 25.3813 214.571 24.56C215.363 23.724 216.397 23.306 217.673 23.306ZM230.977 33.404C231.476 33.404 231.967 33.3087 232.451 33.118V35.78C232.143 35.9413 231.762 36.0733 231.307 36.176C230.853 36.2787 230.391 36.33 229.921 36.33C228.513 36.33 227.457 35.9707 226.753 35.252C226.064 34.5187 225.719 33.3967 225.719 31.886V26.122H223.475V23.636H225.719V19.852H228.909V23.636H231.769V26.122H228.909V31.578C228.909 32.7953 229.599 33.404 230.977 33.404ZM240.385 33.58C241.235 33.58 241.91 33.36 242.409 32.92C242.922 32.48 243.223 31.8713 243.311 31.094H246.611C246.537 32.106 246.259 33.008 245.775 33.8C245.291 34.592 244.587 35.2153 243.663 35.67C242.753 36.11 241.661 36.33 240.385 36.33C238.331 36.33 236.718 35.7653 235.545 34.636C234.386 33.492 233.807 31.8933 233.807 29.84C233.807 28.5347 234.071 27.3907 234.599 26.408C235.127 25.4107 235.867 24.648 236.821 24.12C237.789 23.5773 238.911 23.306 240.187 23.306C242.225 23.306 243.802 23.878 244.917 25.022C246.031 26.166 246.596 27.8087 246.611 29.95H237.063V30.016C237.063 31.1453 237.349 32.0253 237.921 32.656C238.507 33.272 239.329 33.58 240.385 33.58ZM240.187 26.056C239.321 26.056 238.603 26.3347 238.031 26.892C237.473 27.4347 237.158 28.2047 237.085 29.202H243.289C243.215 28.234 242.907 27.4713 242.365 26.914C241.822 26.342 241.096 26.056 240.187 26.056ZM252.333 28.168C252.333 26.54 252.663 25.3227 253.323 24.516C253.983 23.7093 255.009 23.306 256.403 23.306V26.496H255.941C254.65 26.496 253.726 26.716 253.169 27.156C252.611 27.596 252.333 28.3587 252.333 29.444V36H249.143V23.636H252.333V28.168Z" fill="#151A35"/>
<path d="M17.6 19.5V0H0V56.6H17.6V37.1H19C28.7 37.1 36.6 29.2 36.6 19.5H17.6Z" fill="url(#paint0_linear)"/>
<path d="M73.7998 19.5H54.2998V37.1H73.7998V19.5Z" fill="url(#paint1_linear)"/>
<path d="M54.3002 0H36.7002V19.5H54.3002V0Z" fill="url(#paint2_linear)"/>
<path d="M54.3002 37.1H36.7002V56.6H54.3002V37.1Z" fill="url(#paint3_linear)"/>
<defs>
<linearGradient id="paint0_linear" x1="-22.5772" y1="50.5487" x2="34.0804" y2="10.4162" gradientUnits="userSpaceOnUse">
<stop stop-color="#206643"/>
<stop offset="0.2986" stop-color="#15884B"/>
<stop offset="0.3336" stop-color="#148C4C"/>
<stop offset="0.388" stop-color="#26944B"/>
<stop offset="0.5849" stop-color="#64B04A"/>
<stop offset="0.752" stop-color="#90C448"/>
<stop offset="0.8809" stop-color="#ACD047"/>
<stop offset="0.9561" stop-color="#B6D547"/>
</linearGradient>
<linearGradient id="paint1_linear" x1="82.3535" y1="28.3127" x2="-156.271" y2="28.3127" gradientUnits="userSpaceOnUse">
<stop stop-color="#206643"/>
<stop offset="0.1629" stop-color="#428443"/>
<stop offset="0.4016" stop-color="#7AB642"/>
<stop offset="0.5673" stop-color="#7DB842"/>
<stop offset="0.6984" stop-color="#87BD43"/>
<stop offset="0.8177" stop-color="#98C544"/>
<stop offset="0.9293" stop-color="#AFD146"/>
<stop offset="0.9561" stop-color="#B6D547"/>
</linearGradient>
<linearGradient id="paint2_linear" x1="82.3539" y1="9.749" x2="-156.27" y2="9.749" gradientUnits="userSpaceOnUse">
<stop stop-color="#206643"/>
<stop offset="0.1629" stop-color="#428443"/>
<stop offset="0.4016" stop-color="#7AB642"/>
<stop offset="0.5673" stop-color="#7DB842"/>
<stop offset="0.6984" stop-color="#87BD43"/>
<stop offset="0.8177" stop-color="#98C544"/>
<stop offset="0.9293" stop-color="#AFD146"/>
<stop offset="0.9561" stop-color="#B6D547"/>
</linearGradient>
<linearGradient id="paint3_linear" x1="82.3539" y1="46.8764" x2="-156.27" y2="46.8764" gradientUnits="userSpaceOnUse">
<stop stop-color="#206643"/>
<stop offset="0.1629" stop-color="#428443"/>
<stop offset="0.4016" stop-color="#7AB642"/>
<stop offset="0.5673" stop-color="#7DB842"/>
<stop offset="0.6984" stop-color="#87BD43"/>
<stop offset="0.8177" stop-color="#98C544"/>
<stop offset="0.9293" stop-color="#AFD146"/>
<stop offset="0.9561" stop-color="#B6D547"/>
</linearGradient>
</defs>
</svg>
