<svg width="81" height="87" viewBox="0 0 81 87" fill="none" xmlns="http://www.w3.org/2000/svg">
<rect x="80.5469" y="87" width="80.3289" height="80" rx="4" transform="rotate(-180 80.5469 87)" fill="url(#paint0_linear)"/>
<g clip-path="url(#clip0)">
<path d="M37.2342 36.9077C35.764 34.7231 33.3136 33.4154 30.6795 33.4154H24.2014C19.8214 33.4308 16.299 36.9846 16.2837 41.3693V49.6923C16.2837 50.4616 16.8963 51.0769 17.662 51.0769H19.8367L20.924 70.6923C20.97 71.4308 21.5673 72 22.3024 72H32.6551C33.3749 72 33.9875 71.4308 34.0334 70.7077L34.6307 61.6C34.6767 60.8308 34.11 60.1846 33.3443 60.1231C32.5785 60.0769 31.9353 60.6462 31.8741 61.4154L31.3534 69.2308H23.6041L22.5168 49.6154C22.4708 48.8769 21.8736 48.3077 21.1385 48.3077H19.0403V41.3693C19.0557 38.5231 21.3529 36.2 24.1861 36.2H30.6642C32.3794 36.2 33.9722 37.0616 34.937 38.4923C34.9983 38.5846 35.0442 38.6616 35.1055 38.7539V38.8154C35.1055 39.5846 35.7181 40.2 36.4838 40.2C37.2495 40.2 37.8621 39.5846 37.8621 38.8154V38.4C37.8621 38.1846 37.8162 37.9693 37.709 37.7693C37.5711 37.4616 37.4027 37.1846 37.2342 36.9077Z" fill="white"/>
<path d="M27.4021 31.9846C30.8633 31.9846 33.6659 29.1693 33.6659 25.677C33.6659 22.1846 30.8633 19.3846 27.4021 19.3846C23.941 19.3846 21.1384 22.2 21.1384 25.6923C21.1384 29.1846 23.941 31.9846 27.4021 31.9846ZM23.8798 25.6923C23.8798 23.7385 25.4572 22.1539 27.4021 22.1539C29.3471 22.1539 30.9092 23.7385 30.9092 25.677C30.9092 27.6308 29.3318 29.2 27.4021 29.2C25.4572 29.2154 23.8798 27.6308 23.8798 25.6923Z" fill="white"/>
<path d="M54.5549 36.6154H48.0768C46.2697 36.6154 44.5391 37.2462 43.1302 38.3693C42.9005 38.5539 42.6861 38.7385 42.487 38.9539C42.441 39 42.3798 39.0616 42.3491 39.1231L42.0122 39.6L44.2482 41.2154L44.5238 40.8308C44.631 40.7231 44.7535 40.6154 44.8761 40.5231C45.7796 39.7846 46.9282 39.3693 48.0921 39.3846H54.5703C57.4188 39.3846 59.716 41.6923 59.7313 44.5539V49.8923H57.6179C56.8828 49.8923 56.2855 50.4616 56.2396 51.2L55.2288 69.2308H47.4642L46.8363 61.0308L44.095 61.2462L44.8148 70.7231C44.8761 71.4462 45.4733 72 46.1931 72H56.5459C57.281 72 57.8782 71.4308 57.9242 70.6923L58.9349 52.6616H61.1096C61.8754 52.6616 62.488 52.0462 62.488 51.277V44.5539C62.4573 40.1693 58.9196 36.6154 54.5549 36.6154Z" fill="white"/>
<path d="M51.2931 35.1846C53.575 35.1846 55.6731 33.9384 56.7757 31.9384H57.2505C59.4099 31.9231 61.1557 30.1692 61.1557 28C61.1557 25.8307 59.4099 24.0769 57.2505 24.0615H55.3208C54.1876 23.1077 52.7633 22.5846 51.2931 22.5846C47.832 22.5846 45.0294 25.4 45.0294 28.8923C45.014 32.3692 47.8166 35.1846 51.2931 35.1846ZM58.4144 28C58.4144 28.5231 58.0622 28.9846 57.5568 29.1384C57.5568 29.0615 57.5568 28.9692 57.5568 28.8923C57.5568 28.1846 57.4343 27.4923 57.2046 26.8307H57.2352C57.8937 26.8307 58.4144 27.3538 58.4144 28ZM47.7554 28.8923C47.7554 26.9384 49.3328 25.3538 51.2778 25.3538C53.2227 25.3538 54.8001 26.9384 54.8001 28.8769C54.8001 30.8307 53.2227 32.4154 51.2778 32.4154C49.3481 32.4154 47.7707 30.8307 47.7554 28.8923Z" fill="white"/>
<path d="M40.4809 47.5231H38.9035C34.5847 47.5385 31.093 51.0462 31.0776 55.3847V60.3077C31.0776 61.077 31.6902 61.6924 32.456 61.6924H34.6613L35.6567 70.7693C35.7333 71.477 36.3306 72 37.0197 72H42.4105C43.115 72 43.7123 71.4616 43.7735 70.7539L44.7077 61.677H46.913C47.6788 61.677 48.2914 61.0616 48.2914 60.2924V55.3693C48.3067 51.0308 44.7996 47.5231 40.4809 47.5231ZM43.4979 58.9077C42.7934 58.9077 42.1961 59.4462 42.1349 60.1539L41.2007 69.2308H38.2909L37.2954 60.1539C37.2188 59.4462 36.6216 58.9231 35.9324 58.9231H33.8649V55.3847C33.8802 52.5693 36.1468 50.3077 38.9341 50.2924H40.4962C43.2988 50.2924 45.5654 52.5693 45.5654 55.3693V58.9077H43.4979Z" fill="white"/>
<path d="M39.6996 45.4923C42.4563 45.4923 44.6922 43.2462 44.6922 40.4769C44.6922 37.7077 42.4563 35.4615 39.6996 35.4615C36.943 35.4615 34.707 37.7077 34.707 40.4769C34.707 43.2462 36.943 45.4923 39.6996 45.4923ZM37.4637 40.4769C37.4637 39.8769 37.6934 39.3077 38.1222 38.8923C38.5357 38.4769 39.1177 38.2308 39.6996 38.2308C40.9401 38.2308 41.9356 39.2308 41.9356 40.4769C41.9356 41.7231 40.9248 42.7231 39.6996 42.7231C38.4591 42.7231 37.4637 41.7231 37.4637 40.4769Z" fill="white"/>
</g>
<defs>
<linearGradient id="paint0_linear" x1="160.876" y1="127" x2="80.5469" y2="127" gradientUnits="userSpaceOnUse">
<stop stop-color="#F9B95A"/>
<stop offset="1" stop-color="#E72371"/>
</linearGradient>
<clipPath id="clip0">
<rect width="46.1891" height="72" fill="white" transform="translate(16.2837)"/>
</clipPath>
</defs>
</svg>
