<?xml version="1.0"?>
<svg xmlns="http://www.w3.org/2000/svg" xmlns:xlink="http://www.w3.org/1999/xlink" viewBox="0 0 184.18 48.81">
  <defs>
    <style>.cls-1{fill:#181b35;}.cls-2{fill:url(#Degradado_sin_nombre_28);}</style>
    <linearGradient id="Degradado_sin_nombre_28" x1="-256.05" y1="52.55" x2="-218.99" y2="52.55" gradientTransform="translate(256.05 -28.15)" gradientUnits="userSpaceOnUse">
      <stop offset="0" stop-color="#e71d73"/>
      <stop offset="1" stop-color="#faba5b"/>
    </linearGradient>
  </defs>
  <g id="Capa_2" data-name="Capa 2">
    <g id="Capa_1-2" data-name="Capa 1">
      <path class="cls-1" d="M56.88,5.6V8.48h4.86v2.1H57.08V22.8H54.21V10.58H51.93V8.48h4.81V8.42A3.84,3.84,0,0,1,54,4.8C54,2,56,.37,59.27.37A7.07,7.07,0,0,1,62.35,1l-.41,2.18a4,4,0,0,0-2-.51C57.92,2.7,56.88,3.79,56.88,5.6Z"/>
      <path class="cls-1" d="M74.51,8.62l-.86,2.68a4.32,4.32,0,0,0-2.07-.52c-2.48,0-3.92,1.93-3.92,5.21V22.8H64.79V8.48h2.87v5.61h.06c0-3.71,1.7-5.9,4.57-5.9A5.74,5.74,0,0,1,74.51,8.62Z"/>
      <path class="cls-1" d="M89.58,16H78.82c.12,3,1.61,4.81,4,4.81a3.71,3.71,0,0,0,3.94-3.11h2.82c-.49,3.36-3,5.35-6.76,5.35-4.29,0-6.79-2.76-6.79-7.45s2.5-7.45,6.79-7.45,6.76,2.76,6.76,7.45ZM78.85,14.83h7.88c-.23-2.79-1.64-4.4-3.91-4.4S79.08,12,78.85,14.83Z"/>
      <path class="cls-1" d="M106.26,16H95.5c.11,3,1.61,4.81,4,4.81a3.71,3.71,0,0,0,3.94-3.11h2.82c-.49,3.36-3,5.35-6.76,5.35-4.29,0-6.79-2.76-6.79-7.45s2.5-7.45,6.79-7.45,6.76,2.76,6.76,7.45ZM95.53,14.83h7.88c-.23-2.79-1.64-4.4-3.91-4.4S95.76,12,95.53,14.83Z"/>
      <path class="cls-1" d="M123.48.65V22.8h-2.87V18h-.06c0,3.16-1.93,5.06-5.21,5.06-3.74,0-6-2.76-6-7.45s2.21-7.45,6-7.45c3.28,0,5.21,1.9,5.21,5.06h.06V.65Zm-2.67,15c0-3.11-1.56-5.12-4.23-5.12s-4.23,1.9-4.23,5.12,1.55,5.12,4.23,5.12S120.81,18.75,120.81,15.64Z"/>
      <path class="cls-1" d="M127.48,15.64c0-4.69,2.67-7.45,7.16-7.45s7.16,2.76,7.16,7.45-2.65,7.45-7.16,7.45S127.48,20.33,127.48,15.64Zm11.39,0c0-3.22-1.56-5.12-4.23-5.12s-4.23,1.9-4.23,5.12,1.55,5.12,4.23,5.12S138.87,18.86,138.87,15.64Z"/>
      <path class="cls-1" d="M158.62,14V22.8h-2.87V14.06c0-2.25-1.24-3.54-3.34-3.54-2.36,0-3.77,1.67-3.77,4.49V22.8h-2.88V8.48h2.88v5h.06c0-3.3,1.78-5.26,4.8-5.26C156.72,8.19,158.62,10.35,158.62,14Z"/>
      <path class="cls-1" d="M163.25,2.24h2.87V5.49h-2.87Zm0,6.24h2.87V22.8h-2.87Z"/>
      <path class="cls-1" d="M184.18,8.48V22.8h-2.87V18h-.06c0,3.16-1.93,5.06-5.21,5.06-3.73,0-5.95-2.76-5.95-7.45s2.22-7.45,5.95-7.45c3.28,0,5.21,1.9,5.21,5.06h.06V8.48Zm-2.67,7.16c0-3.11-1.55-5.12-4.23-5.12s-4.23,1.9-4.23,5.12,1.56,5.12,4.23,5.12S181.51,18.75,181.51,15.64Z"/>
      <path class="cls-1" d="M52.51,40.71c0-4.69,2.64-7.45,7.1-7.45,3.63,0,6,1.93,6.71,5.23H63.47a3.81,3.81,0,0,0-3.86-2.9c-2.64,0-4.17,1.9-4.17,5.12s1.53,5.12,4.17,5.12a3.78,3.78,0,0,0,3.91-3.19H66.4c-.6,3.5-3.05,5.52-6.79,5.52C55.15,48.16,52.51,45.4,52.51,40.71Z"/>
      <path class="cls-1" d="M70.08,27.3H73v3.25H70.08Zm0,6.25H73V47.87H70.08Z"/>
      <path class="cls-1" d="M81.35,35.65v7.79a2.23,2.23,0,0,0,2.5,2.39,4.71,4.71,0,0,0,2-.46v2.18a7.24,7.24,0,0,1-2.94.61,4.07,4.07,0,0,1-4.45-4.43V35.65H76.26v-2.1h2.42V28.66h2.87v1.2a3.83,3.83,0,0,1-2.76,3.63v.06h7.28v2.1Z"/>
      <path class="cls-1" d="M89.34,27.3h2.88v3.25H89.34Zm0,6.25h2.88V47.87H89.34Z"/>
      <path class="cls-1" d="M109,45.8v2.07H96.16V43l11.91-7.34v-.05H96.33v-2.1h12.08v4.83L96.5,45.74v.06Z"/>
      <path class="cls-1" d="M125.23,41.11H114.48c.11,3,1.61,4.8,4,4.8a3.72,3.72,0,0,0,3.94-3.1h2.81c-.48,3.36-3,5.35-6.75,5.35-4.29,0-6.79-2.76-6.79-7.45s2.5-7.45,6.79-7.45,6.75,2.76,6.75,7.45ZM114.51,39.9h7.88c-.23-2.79-1.64-4.4-3.91-4.4S114.74,37.11,114.51,39.9Z"/>
      <path class="cls-1" d="M142,39v8.83h-2.88V39.13c0-2.25-1.24-3.54-3.33-3.54-2.36,0-3.77,1.67-3.77,4.49v7.79h-2.88V33.55h2.88v5h0c0-3.3,1.79-5.26,4.81-5.26C140.13,33.26,142,35.42,142,39Z"/>
      <path class="cls-2" d="M31.68,32.74H23.9a8.33,8.33,0,0,1-8.33-8.34h0a8.33,8.33,0,0,1,8.33-8.33h7.78a5.37,5.37,0,0,0,5.37-5.38V0H24.4A24.41,24.41,0,0,0,0,24.4H0A24.41,24.41,0,0,0,24.4,48.81H37.05V38.11A5.36,5.36,0,0,0,31.68,32.74Z"/>
    </g>
  </g>
</svg>
