<svg width="80" height="80" viewBox="0 0 80 80" fill="none" xmlns="http://www.w3.org/2000/svg">
<rect x="80" y="80" width="80" height="80" rx="4" transform="rotate(-180 80 80)" fill="url(#paint0_linear)"/>
<path d="M39.7179 35.3589C42.8492 35.3589 45.3846 32.8235 45.3846 29.6784C45.3846 26.5334 42.8492 24.0256 39.7179 24.0256C36.5867 24.0256 34.0513 26.5611 34.0513 29.7061C34.0513 32.8512 36.5867 35.3728 39.7179 35.3589ZM36.5313 29.6923C36.5313 27.9327 37.9584 26.5057 39.7179 26.5057C41.4775 26.5057 42.8907 27.9327 42.8907 29.6784C42.8907 31.438 41.4637 32.8512 39.7179 32.8512C37.9584 32.8789 36.5313 31.4518 36.5313 29.6923Z" fill="white"/>
<path d="M58.8974 65H20.1025V22.7233L28.8485 14H58.8974V65ZM22.2959 62.8123H56.7041V16.1877H29.7533L22.2959 23.6257V62.8123Z" fill="white"/>
<path d="M42.5795 40.1768C45.2955 40.1906 47.5127 42.393 47.5127 45.0772V46.2335H31.8957V45.091C31.8957 42.393 34.1128 40.1906 36.8288 40.1768H42.5795ZM42.5795 37.9744H36.8427C32.8934 37.9881 29.6924 41.1541 29.6924 45.0772V48.4359H49.7437V45.0772C49.716 41.1541 46.5288 37.9881 42.5795 37.9744Z" fill="white"/>
<path d="M51.0513 56.282H41.8975V58.4615H51.0513V56.282Z" fill="white"/>
<path d="M31.9903 59.3333L28.8206 56.2614L30.4267 54.7048L31.9903 56.2063L35.0605 53.2308L36.6667 54.7874L31.9903 59.3333Z" fill="white"/>
<defs>
<linearGradient id="paint0_linear" x1="160" y1="120" x2="80" y2="120" gradientUnits="userSpaceOnUse">
<stop stop-color="#F9B95A"/>
<stop offset="1" stop-color="#E72371"/>
</linearGradient>
</defs>
</svg>
