<svg width="89" height="87" viewBox="0 0 89 87" fill="none" xmlns="http://www.w3.org/2000/svg">
<path d="M68.4834 67.1291C76.2154 67.1291 82.4834 60.6588 82.4834 52.6774C82.4834 44.696 76.2154 38.2258 68.4834 38.2258C60.7514 38.2258 54.4834 44.696 54.4834 52.6774C54.4834 60.6588 60.7514 67.1291 68.4834 67.1291Z" stroke="#151A35" stroke-width="5" stroke-miterlimit="10"/>
<path d="M68.9355 38.2258V31.9032" stroke="#151A35" stroke-width="5" stroke-miterlimit="10"/>
<path d="M61.7096 40.9355L58.0967 34.6129" stroke="#151A35" stroke-width="5" stroke-miterlimit="10"/>
<path d="M56.2904 45.4516L50.8711 42.7419" stroke="#151A35" stroke-width="5" stroke-miterlimit="10"/>
<path d="M54.4837 52.6775H48.1611" stroke="#151A35" stroke-width="5" stroke-miterlimit="10"/>
<path d="M56.2904 59.9033L50.8711 63.5162" stroke="#151A35" stroke-width="5" stroke-miterlimit="10"/>
<path d="M61.7096 65.3225L58.0967 70.7419" stroke="#151A35" stroke-width="5" stroke-miterlimit="10"/>
<path d="M68.9355 67.1292V73.4517" stroke="#151A35" stroke-width="5" stroke-miterlimit="10"/>
<path d="M76.1611 65.3225L78.8708 70.7419" stroke="#151A35" stroke-width="5" stroke-miterlimit="10"/>
<path d="M80.6777 59.9033L86.0971 63.5162" stroke="#151A35" stroke-width="5" stroke-miterlimit="10"/>
<path d="M82.4834 52.6775H88.806" stroke="#151A35" stroke-width="5" stroke-miterlimit="10"/>
<path d="M80.6777 45.4516L86.0971 42.7419" stroke="#151A35" stroke-width="5" stroke-miterlimit="10"/>
<path d="M76.1611 40.9355L78.8708 34.6129" stroke="#151A35" stroke-width="5" stroke-miterlimit="10"/>
<path d="M63.5166 46.3547H67.1295" stroke="#151A35" stroke-width="5" stroke-miterlimit="10"/>
<path d="M73.4512 50.8708H76.1608" stroke="#151A35" stroke-width="5" stroke-miterlimit="10"/>
<path d="M62.6133 57.1936H65.323" stroke="#151A35" stroke-width="5" stroke-miterlimit="10"/>
<path d="M11.1289 38.2258V87" stroke="#151A35" stroke-width="5" stroke-miterlimit="10" stroke-linejoin="round"/>
<path d="M20.1611 58.0967V86.9999" stroke="#151A35" stroke-width="5" stroke-miterlimit="10" stroke-linejoin="round"/>
<path d="M20.1613 27.3871H11.5806C5.55549 27.3871 3 31.9855 3 38.5269V54.1139C3 57.8056 5.88792 60.8064 9.44068 60.8064H11.5806" stroke="#151A35" stroke-width="5" stroke-miterlimit="10" stroke-linecap="round" stroke-linejoin="round"/>
<path d="M29.1934 38.2258V87" stroke="#151A35" stroke-width="5" stroke-miterlimit="10" stroke-linejoin="round"/>
<path d="M20.1611 27.3871H29.1934C35.5357 27.3871 38.2256 31.9855 38.2256 38.5269V54.1139C38.2256 57.8056 35.1857 60.8064 31.446 60.8064H29.1934" stroke="#151A35" stroke-width="5" stroke-miterlimit="10" stroke-linecap="round" stroke-linejoin="round"/>
<path d="M29.1931 12.1197C29.1493 17.1059 25.0767 21.1079 20.0845 21.0642C15.0924 21.0204 11.0855 16.9528 11.1293 11.9448C11.1731 6.95865 15.2456 2.95662 20.2378 3.00036C25.23 3.04409 29.2369 7.1336 29.1931 12.1197Z" stroke="#151A35" stroke-width="5" stroke-miterlimit="10"/>
</svg>
