<?xml version="1.0"?>
<svg xmlns="http://www.w3.org/2000/svg" xmlns:xlink="http://www.w3.org/1999/xlink" viewBox="0 0 190.19 48.81">
  <defs>
    <style>.cls-1{fill:#fff;}.cls-2{fill:url(#Degradado_sin_nombre_28);}</style>
    <linearGradient id="Degradado_sin_nombre_28" x1="-256.05" y1="52.55" x2="-218.99" y2="52.55" gradientTransform="translate(256.05 -28.15)" gradientUnits="userSpaceOnUse">
      <stop offset="0" stop-color="#e71d73"/>
      <stop offset="1" stop-color="#faba5b"/>
    </linearGradient>
  </defs>
  <g id="Capa_2" data-name="Capa 2">
    <g id="Capa_1-2" data-name="Capa 1">
      <path class="cls-1" d="M62.88,5.6V8.48h4.87v2.1H63.09V22.8H60.21V10.58H57.94V8.48h4.8V8.42A3.83,3.83,0,0,1,60,4.8C60,2,62,.37,65.27.37A7,7,0,0,1,68.35,1L68,3.21a4,4,0,0,0-2-.51C63.92,2.7,62.88,3.79,62.88,5.6Z"/>
      <path class="cls-1" d="M80.51,8.62l-.86,2.68a4.29,4.29,0,0,0-2.07-.52c-2.47,0-3.91,1.93-3.91,5.21V22.8H70.79V8.48h2.88v5.61h.06c0-3.71,1.69-5.9,4.57-5.9A5.69,5.69,0,0,1,80.51,8.62Z"/>
      <path class="cls-1" d="M95.58,16H84.83c.11,3,1.61,4.81,4,4.81a3.71,3.71,0,0,0,3.94-3.11h2.82c-.49,3.36-3,5.35-6.76,5.35-4.28,0-6.78-2.76-6.78-7.45s2.5-7.45,6.78-7.45,6.76,2.76,6.76,7.45ZM84.85,14.83h7.88c-.23-2.79-1.63-4.4-3.91-4.4S85.08,12,84.85,14.83Z"/>
      <path class="cls-1" d="M112.26,16H101.5c.12,3,1.61,4.81,4,4.81a3.71,3.71,0,0,0,3.94-3.11h2.82c-.49,3.36-3,5.35-6.76,5.35-4.28,0-6.79-2.76-6.79-7.45s2.51-7.45,6.79-7.45,6.76,2.76,6.76,7.45Zm-10.73-1.21h7.88c-.23-2.79-1.64-4.4-3.91-4.4S101.76,12,101.53,14.83Z"/>
      <path class="cls-1" d="M129.49.65V22.8h-2.88V18h-.06c0,3.16-1.93,5.06-5.2,5.06-3.74,0-6-2.76-6-7.45s2.22-7.45,6-7.45c3.27,0,5.2,1.9,5.2,5.06h.06V.65Zm-2.68,15c0-3.11-1.55-5.12-4.23-5.12s-4.23,1.9-4.23,5.12,1.56,5.12,4.23,5.12S126.81,18.75,126.81,15.64Z"/>
      <path class="cls-1" d="M133.48,15.64c0-4.69,2.67-7.45,7.16-7.45s7.16,2.76,7.16,7.45-2.64,7.45-7.16,7.45S133.48,20.33,133.48,15.64Zm11.39,0c0-3.22-1.55-5.12-4.23-5.12s-4.23,1.9-4.23,5.12,1.56,5.12,4.23,5.12S144.87,18.86,144.87,15.64Z"/>
      <path class="cls-1" d="M164.62,14V22.8h-2.87V14.06c0-2.25-1.24-3.54-3.34-3.54-2.36,0-3.77,1.67-3.77,4.49V22.8h-2.87V8.48h2.87v5h.06c0-3.3,1.79-5.26,4.81-5.26C162.73,8.19,164.62,10.35,164.62,14Z"/>
      <path class="cls-1" d="M169.25,2.24h2.88V5.49h-2.88Zm0,6.24h2.88V22.8h-2.88Z"/>
      <path class="cls-1" d="M190.19,8.48V22.8h-2.88V18h-.06c0,3.16-1.92,5.06-5.2,5.06-3.74,0-6-2.76-6-7.45s2.22-7.45,6-7.45c3.28,0,5.2,1.9,5.2,5.06h.06V8.48Zm-2.68,7.16c0-3.11-1.55-5.12-4.22-5.12s-4.23,1.9-4.23,5.12,1.55,5.12,4.23,5.12S187.51,18.75,187.51,15.64Z"/>
      <path class="cls-1" d="M58.51,40.71c0-4.69,2.65-7.45,7.11-7.45,3.62,0,6,1.93,6.7,5.23H69.47a3.8,3.8,0,0,0-3.85-2.9c-2.65,0-4.17,1.9-4.17,5.12s1.52,5.12,4.17,5.12a3.79,3.79,0,0,0,3.91-3.19H72.4c-.6,3.5-3,5.52-6.78,5.52C61.16,48.16,58.51,45.4,58.51,40.71Z"/>
      <path class="cls-1" d="M76.08,27.3H79v3.25H76.08Zm0,6.25H79V47.87H76.08Z"/>
      <path class="cls-1" d="M87.35,35.65v7.79a2.23,2.23,0,0,0,2.51,2.39,4.64,4.64,0,0,0,2-.46v2.18a7.2,7.2,0,0,1-2.93.61,4.08,4.08,0,0,1-4.46-4.43V35.65H82.26v-2.1h2.42V28.66h2.88v1.2a3.84,3.84,0,0,1-2.76,3.63v.06h7.27v2.1Z"/>
      <path class="cls-1" d="M95.35,27.3h2.87v3.25H95.35Zm0,6.25h2.87V47.87H95.35Z"/>
      <path class="cls-1" d="M115,45.8v2.07h-12.8V43l11.91-7.34v-.05H102.33v-2.1h12.09v4.83l-11.91,7.36v.06Z"/>
      <path class="cls-1" d="M131.24,41.11H120.48c.12,3,1.61,4.8,4,4.8a3.71,3.71,0,0,0,3.94-3.1h2.82c-.49,3.36-3,5.35-6.76,5.35-4.29,0-6.79-2.76-6.79-7.45s2.5-7.45,6.79-7.45,6.76,2.76,6.76,7.45ZM120.51,39.9h7.88c-.23-2.79-1.64-4.4-3.91-4.4S120.74,37.11,120.51,39.9Z"/>
      <path class="cls-1" d="M148,39v8.83h-2.87V39.13c0-2.25-1.24-3.54-3.34-3.54-2.36,0-3.77,1.67-3.77,4.49v7.79h-2.88V33.55h2.88v5h.06c0-3.3,1.78-5.26,4.8-5.26C146.13,33.26,148,35.42,148,39Z"/>
      <path class="cls-2" d="M31.68,32.74H23.9a8.33,8.33,0,0,1-8.33-8.34h0a8.33,8.33,0,0,1,8.33-8.33h7.78a5.37,5.37,0,0,0,5.37-5.38V0H24.4A24.41,24.41,0,0,0,0,24.4H0A24.41,24.41,0,0,0,24.4,48.81H37.05V38.11A5.36,5.36,0,0,0,31.68,32.74Z"/>
    </g>
  </g>
</svg>
