<svg width="180" height="55" viewBox="0 0 180 55" fill="none" xmlns="http://www.w3.org/2000/svg">
<path d="M54.046 20.984H65.09V23.888H57.258V28.024H62.802V30.906H57.258V37H54.046V20.984ZM70.0314 19.4V37H66.8414V19.4H70.0314ZM84.0657 24.636L77.8617 42.72H74.6057L76.2557 38.034L71.6797 24.636H74.9577L76.7837 30.268L77.8397 34.47L78.9617 30.268L80.8317 24.636H84.0657ZM100.939 33.458H94.4048L93.1508 37H90.1588L95.8568 20.984H99.7288L105.449 37H102.215L100.939 33.458ZM99.9268 30.598L97.6828 24.306L95.4388 30.598H99.9268ZM107.125 20.742C107.125 20.214 107.308 19.7667 107.675 19.4C108.041 19.0333 108.489 18.85 109.017 18.85C109.53 18.85 109.97 19.0333 110.337 19.4C110.703 19.7667 110.887 20.214 110.887 20.742C110.887 21.2407 110.703 21.6807 110.337 22.062C109.97 22.4287 109.53 22.612 109.017 22.612C108.489 22.612 108.041 22.4287 107.675 22.062C107.308 21.6953 107.125 21.2553 107.125 20.742ZM110.601 24.636V37H107.411V24.636H110.601ZM117.405 29.168C117.405 27.54 117.735 26.3227 118.395 25.516C119.055 24.7093 120.082 24.306 121.475 24.306V27.496H121.013C119.722 27.496 118.798 27.716 118.241 28.156C117.684 28.596 117.405 29.3587 117.405 30.444V37H114.215V24.636H117.405V29.168ZM126.664 19.4V37H123.474V19.4H126.664ZM129.963 20.742C129.963 20.214 130.146 19.7667 130.513 19.4C130.879 19.0333 131.327 18.85 131.855 18.85C132.368 18.85 132.808 19.0333 133.175 19.4C133.541 19.7667 133.725 20.214 133.725 20.742C133.725 21.2407 133.541 21.6807 133.175 22.062C132.808 22.4287 132.368 22.612 131.855 22.612C131.327 22.612 130.879 22.4287 130.513 22.062C130.146 21.6953 129.963 21.2553 129.963 20.742ZM133.439 24.636V37H130.249V24.636H133.439ZM144.599 24.306C145.875 24.306 146.865 24.6947 147.569 25.472C148.273 26.2347 148.625 27.3713 148.625 28.882V37H145.435V29.894C145.435 29.0433 145.237 28.3687 144.841 27.87C144.46 27.3713 143.873 27.122 143.081 27.122C142.289 27.122 141.629 27.386 141.101 27.914C140.588 28.442 140.331 29.146 140.331 30.026V37H137.141V24.636H140.331V29.168C140.331 27.584 140.72 26.3813 141.497 25.56C142.289 24.724 143.323 24.306 144.599 24.306ZM157.793 34.58C158.644 34.58 159.318 34.36 159.817 33.92C160.33 33.48 160.631 32.8713 160.719 32.094H164.019C163.946 33.106 163.667 34.008 163.183 34.8C162.699 35.592 161.995 36.2153 161.071 36.67C160.162 37.11 159.069 37.33 157.793 37.33C155.74 37.33 154.126 36.7653 152.953 35.636C151.794 34.492 151.215 32.8933 151.215 30.84C151.215 29.5347 151.479 28.3907 152.007 27.408C152.535 26.4107 153.276 25.648 154.229 25.12C155.197 24.5773 156.319 24.306 157.595 24.306C159.634 24.306 161.21 24.878 162.325 26.022C163.44 27.166 164.004 28.8087 164.019 30.95H154.471V31.016C154.471 32.1453 154.757 33.0253 155.329 33.656C155.916 34.272 156.737 34.58 157.793 34.58ZM157.595 27.056C156.73 27.056 156.011 27.3347 155.439 27.892C154.882 28.4347 154.566 29.2047 154.493 30.202H160.697C160.624 29.234 160.316 28.4713 159.773 27.914C159.23 27.342 158.504 27.056 157.595 27.056ZM174.867 28.552C174.838 28.0387 174.574 27.6207 174.075 27.298C173.576 26.9607 172.916 26.792 172.095 26.792C171.347 26.792 170.76 26.924 170.335 27.188C169.924 27.4373 169.719 27.782 169.719 28.222C169.719 28.5447 169.851 28.794 170.115 28.97C170.394 29.1313 170.738 29.256 171.149 29.344C171.56 29.4173 172.161 29.5053 172.953 29.608C174.112 29.74 175.065 29.9013 175.813 30.092C176.576 30.2827 177.228 30.6347 177.771 31.148C178.328 31.6613 178.607 32.3947 178.607 33.348C178.607 34.624 178.064 35.6067 176.979 36.296C175.894 36.9853 174.42 37.33 172.557 37.33C170.386 37.33 168.736 36.9413 167.607 36.164C166.478 35.372 165.913 34.184 165.913 32.6H169.345C169.404 33.348 169.734 33.9127 170.335 34.294C170.936 34.6607 171.728 34.844 172.711 34.844C173.518 34.844 174.134 34.712 174.559 34.448C174.984 34.184 175.197 33.8173 175.197 33.348C175.197 32.9667 175.043 32.6733 174.735 32.468C174.427 32.248 174.038 32.0867 173.569 31.984C173.1 31.8813 172.454 31.7787 171.633 31.676C170.504 31.544 169.572 31.3827 168.839 31.192C168.12 31.0013 167.504 30.6787 166.991 30.224C166.478 29.7547 166.221 29.0873 166.221 28.222C166.221 27.474 166.448 26.8067 166.903 26.22C167.358 25.6187 168.025 25.1493 168.905 24.812C169.785 24.4747 170.848 24.306 172.095 24.306C174.09 24.306 175.608 24.6947 176.649 25.472C177.69 26.2493 178.211 27.276 178.211 28.552H174.867Z" fill="black"/>
<g clip-path="url(#clip0)">
<path d="M7.43215 0C3.34029 0 0 3.40031 0 7.56569V18.0216C0 22.9521 3.92484 27.0325 8.85177 27.0325H24.7182C25.9708 28.7326 24.7182 31.1128 22.714 31.1128H15.1983L8.68476 37.1484L6.09603 37.3184C6.01253 37.3184 5.92902 37.2334 5.92902 37.1484L9.35282 31.1128H8.76827C3.92484 31.1128 0 35.1082 0 40.0386V55.085H7.26514C11.357 55.085 14.6973 51.6847 14.6973 47.5193V36.2983H28.5595C31.6493 36.2983 34.1545 33.7481 34.1545 30.6028V26.7774C34.1545 23.6321 31.6493 21.0819 28.5595 21.0819H17.7035C16.1169 21.0819 14.7808 19.7218 14.7808 18.1066C14.7808 16.4915 16.1169 15.1314 17.7035 15.1314H34.405C37.4948 15.1314 40 12.5811 40 9.43586V0H7.43215ZM8.60125 25.9274C8.60125 25.9274 6.26305 21.932 5.84551 21.1669C5.762 21.0819 5.84551 20.9119 6.01253 20.9969L8.60125 21.1669L13.7787 25.9274H8.60125Z" fill="url(#paint0_linear)"/>
</g>
<defs>
<linearGradient id="paint0_linear" x1="4.89779" y1="-6.31284" x2="25.2044" y2="37.6253" gradientUnits="userSpaceOnUse">
<stop stop-color="#2E16FF"/>
<stop offset="0.1621" stop-color="#2E38FF"/>
<stop offset="0.3336" stop-color="#2E60FF"/>
<stop offset="0.5015" stop-color="#2E63FF"/>
<stop offset="0.6344" stop-color="#2F6DFF"/>
<stop offset="0.7554" stop-color="#307EFF"/>
<stop offset="0.8685" stop-color="#3195FF"/>
<stop offset="0.9561" stop-color="#33ADFF"/>
</linearGradient>
<clipPath id="clip0">
<rect width="40" height="55" fill="white"/>
</clipPath>
</defs>
</svg>
