<?xml version="1.0" encoding="UTF-8"?>
<svg xmlns="http://www.w3.org/2000/svg" xmlns:xlink="http://www.w3.org/1999/xlink" width="184.93pt" height="184.93pt" viewBox="0 0 184.93 184.93" version="1.1">
<defs>
<clipPath id="clip1">
  <path d="M 0 0 L 184.929688 0 L 184.929688 184.929688 L 0 184.929688 Z M 0 0 "/>
</clipPath>
</defs>
<g id="surface1">
<g clip-path="url(#clip1)" clip-rule="nonzero">
<path style=" stroke:none;fill-rule:nonzero;fill:rgb(100%,100%,100%);fill-opacity:0;" d="M 0 184.929688 L 184.933594 184.929688 L 184.933594 0 L 0 0 Z M 0 184.929688 "/>
</g>
<path style=" stroke:none;fill-rule:nonzero;fill:rgb(0%,36.499023%,67.498779%);fill-opacity:1;" d="M 57.582031 87.277344 C 57.398438 86.289063 57.3125 85.261719 57.121094 84.289063 C 56.890625 83.746094 56.707031 83.1875 56.585938 82.605469 C 56.410156 82.199219 56.1875 81.824219 56.082031 81.394531 C 55.917969 81.027344 55.660156 80.699219 55.558594 80.308594 C 54.632813 78.800781 53.652344 77.316406 52.257813 76.007813 C 51.675781 75.394531 50.90625 75.238281 50.238281 74.84375 C 48.996094 74.480469 47.742188 74.175781 46.402344 74.054688 C 45.734375 74.113281 45.0625 74.199219 44.355469 74.152344 C 43.828125 74.085938 43.308594 73.984375 42.722656 74.023438 C 42.050781 74.113281 41.347656 74.128906 40.71875 74.328125 C 40.296875 74.558594 39.894531 74.835938 39.402344 74.902344 C 38.382813 75.332031 37.3125 75.613281 36.222656 75.882813 C 35.460938 76.167969 34.730469 76.535156 34.019531 76.941406 C 32.886719 77.695313 31.867188 78.753906 30.855469 79.789063 L 29.210938 81.992188 L 28.933594 82.453125 C 28.652344 82.859375 28.207031 83.234375 28.304688 83.785156 C 28.382813 84.480469 27.753906 84.941406 27.457031 85.507813 C 27.273438 85.890625 27.210938 86.3125 27.027344 86.695313 C 26.714844 87.574219 26.769531 88.601563 26.589844 89.542969 L 26.589844 92.164063 L 26.757813 93.566406 C 26.769531 94.429688 27.257813 95.09375 27.402344 95.898438 C 27.878906 96.765625 28.183594 97.707031 28.910156 98.464844 C 29.691406 99.441406 30.664063 100.457031 31.714844 101.085938 C 32.449219 101.535156 33.183594 101.996094 33.941406 102.386719 C 34.441406 102.554688 34.9375 102.707031 35.40625 102.9375 C 35.980469 103.082031 36.570313 103.183594 37.105469 103.398438 C 37.886719 103.648438 38.796875 103.597656 39.640625 103.695313 C 40.671875 103.878906 41.410156 103.222656 42.351563 103.121094 C 42.761719 103.039063 43.101563 102.785156 43.539063 102.753906 C 43.851563 102.753906 44.011719 103.128906 44.285156 103.210938 C 44.894531 103.289063 45.445313 103.074219 46.003906 102.9375 C 46.546875 102.59375 47.183594 102.457031 47.71875 102.097656 C 48.675781 101.757813 49.664063 101.523438 50.488281 100.886719 C 51.691406 100.074219 52.75 98.847656 53.777344 97.777344 C 54.488281 96.734375 55.390625 95.777344 55.933594 94.667969 C 56.136719 94.214844 56.28125 93.734375 56.539063 93.304688 C 56.722656 92.796875 56.867188 92.277344 57.089844 91.796875 L 57.542969 89.636719 C 57.632813 88.878906 57.597656 88.050781 57.582031 87.277344 Z M 53.316406 91.765625 C 53.214844 92.445313 53.195313 93.15625 52.984375 93.792969 C 52.757813 94.160156 52.671875 94.582031 52.511719 94.972656 C 52.289063 95.316406 52.152344 95.691406 51.953125 96.042969 C 51.394531 96.949219 50.4375 97.554688 49.679688 98.3125 C 49.128906 98.648438 48.605469 99.054688 48.054688 99.386719 C 47.574219 99.546875 46.992188 99.492188 46.46875 99.570313 C 45.734375 99.792969 44.847656 99.683594 44.035156 99.699219 C 43.277344 99.585938 42.480469 99.578125 41.699219 99.53125 C 40.941406 99.492188 40.257813 99.261719 39.570313 99.070313 C 38.875 99.03125 38.339844 98.640625 37.703125 98.464844 C 37.203125 98.289063 36.761719 97.976563 36.308594 97.699219 C 35.820313 97.285156 35.3125 96.894531 34.832031 96.484375 C 34.203125 95.710938 33.53125 94.964844 33.132813 94.101563 C 32.984375 93.679688 32.757813 93.289063 32.582031 92.875 C 32.472656 92.324219 32.289063 91.796875 32.097656 91.265625 C 31.960938 90.386719 31.890625 89.472656 31.804688 88.570313 C 31.765625 87.75 31.960938 87.03125 32.042969 86.265625 C 32.234375 85.660156 32.457031 85.070313 32.585938 84.445313 C 32.816406 84.007813 32.984375 83.550781 33.160156 83.097656 C 33.5 82.632813 33.613281 82.070313 34.101563 81.683594 C 34.523438 81.3125 34.96875 80.996094 35.535156 80.988281 C 36.269531 81.066406 36.660156 80.292969 37.195313 79.902344 L 37.917969 79.421875 C 38.589844 79.183594 39.203125 78.796875 39.960938 78.765625 L 43.761719 78.777344 C 44.585938 78.808594 45.253906 79.234375 46.011719 79.453125 C 46.363281 79.703125 46.777344 79.835938 47.121094 80.109375 C 47.863281 80.78125 48.699219 81.28125 49.355469 82.101563 C 49.976563 82.890625 50.628906 83.671875 51.101563 84.527344 C 51.5 85.019531 51.671875 85.609375 52.054688 86.105469 C 52.183594 86.527344 52.457031 86.886719 52.597656 87.300781 C 52.757813 88.152344 53.195313 88.886719 53.195313 89.796875 C 53.179688 90.476563 53.414063 91.082031 53.316406 91.765625 "/>
<path style=" stroke:none;fill-rule:nonzero;fill:rgb(92.498779%,0%,54.899597%);fill-opacity:1;" d="M 47.847656 68.546875 C 48.40625 68.929688 48.707031 69.496094 48.699219 70.148438 C 48.636719 70.636719 48.589844 71.226563 48.0625 71.472656 C 47.488281 71.824219 46.652344 71.945313 46.003906 71.683594 C 45.453125 71.503906 44.839844 70.976563 44.777344 70.355469 C 44.746094 69.804688 44.660156 69.136719 45.167969 68.792969 C 45.597656 68.632813 45.910156 68.195313 46.417969 68.21875 C 46.953125 68.195313 47.464844 68.210938 47.847656 68.546875 "/>
<path style=" stroke:none;fill-rule:nonzero;fill:rgb(92.498779%,0%,54.899597%);fill-opacity:1;" d="M 40.804688 69.511719 C 41.203125 69.949219 41.402344 70.5 41.308594 71.113281 C 41.1875 71.71875 40.613281 72.199219 40.046875 72.390625 C 39.226563 72.660156 38.367188 72.40625 37.785156 71.777344 C 37.320313 71.324219 37.144531 70.699219 37.3125 70.054688 C 37.441406 69.542969 38.007813 69.320313 38.375 69.015625 C 38.773438 68.699219 39.460938 68.683594 39.921875 68.886719 C 40.226563 69.058594 40.519531 69.273438 40.804688 69.511719 "/>
<path style=" stroke:none;fill-rule:nonzero;fill:rgb(92.498779%,0%,54.899597%);fill-opacity:1;" d="M 55.496094 71.265625 C 55.652344 71.683594 55.972656 72.152344 55.714844 72.628906 C 55.550781 73.027344 55.332031 73.539063 54.855469 73.660156 C 54.425781 73.824219 53.960938 74.058594 53.460938 73.886719 C 53.085938 73.691406 52.632813 73.671875 52.3125 73.332031 C 51.816406 72.882813 51.671875 72.238281 51.761719 71.550781 C 51.800781 70.898438 52.542969 70.773438 52.941406 70.414063 C 53.5 70.125 54.273438 70.226563 54.785156 70.539063 C 55.039063 70.753906 55.351563 70.96875 55.496094 71.265625 "/>
<path style=" stroke:none;fill-rule:nonzero;fill:rgb(92.498779%,0%,54.899597%);fill-opacity:1;" d="M 34.292969 71.902344 C 34.632813 72.347656 34.945313 72.871094 34.777344 73.464844 C 34.625 73.960938 34.246094 74.550781 33.691406 74.6875 C 33.046875 74.890625 32.25 74.804688 31.675781 74.515625 C 31.285156 74.191406 30.957031 73.769531 30.828125 73.308594 C 30.757813 72.773438 30.726563 72.144531 31.199219 71.777344 C 31.746094 71.394531 32.328125 71.011719 33.039063 71.117188 C 33.5 71.289063 33.949219 71.488281 34.292969 71.902344 "/>
<path style=" stroke:none;fill-rule:nonzero;fill:rgb(92.498779%,0%,54.899597%);fill-opacity:1;" d="M 28.566406 75.839844 C 29.078125 76.226563 29.332031 76.757813 29.316406 77.386719 C 29.253906 77.796875 29.222656 78.234375 28.851563 78.511719 C 28.34375 79.046875 27.570313 78.976563 26.867188 78.964844 C 26.332031 78.890625 25.910156 78.503906 25.550781 78.074219 C 25.242188 77.605469 25.273438 76.910156 25.382813 76.355469 C 25.480469 75.929688 25.949219 75.808594 26.269531 75.613281 C 26.628906 75.21875 27.28125 75.171875 27.753906 75.363281 L 28.566406 75.839844 "/>
<path style=" stroke:none;fill-rule:nonzero;fill:rgb(92.498779%,0%,54.899597%);fill-opacity:1;" d="M 59.480469 75.773438 C 59.839844 76.066406 60.339844 76.425781 60.4375 76.878906 C 60.683594 77.46875 60.5 78.15625 60.140625 78.640625 C 59.59375 79.105469 58.851563 79.144531 58.125 79.105469 C 57.566406 79.078125 57.089844 78.753906 56.753906 78.28125 C 56.480469 77.875 56.546875 77.300781 56.5625 76.804688 C 56.640625 76.019531 57.496094 75.785156 58.078125 75.53125 C 58.578125 75.226563 59.035156 75.640625 59.480469 75.773438 "/>
<path style=" stroke:none;fill-rule:nonzero;fill:rgb(92.498779%,0%,54.899597%);fill-opacity:1;" d="M 25.410156 82.210938 C 25.566406 82.546875 25.777344 82.96875 25.582031 83.351563 C 25.386719 83.730469 25.296875 84.261719 24.816406 84.414063 C 24.316406 84.574219 23.804688 84.882813 23.242188 84.683594 C 22.671875 84.519531 22.066406 84.238281 21.789063 83.632813 C 21.515625 83.183594 21.53125 82.492188 21.707031 82.003906 C 21.933594 81.648438 22.308594 81.503906 22.617188 81.273438 C 23.242188 80.882813 24.1875 80.996094 24.753906 81.441406 C 25.003906 81.664063 25.296875 81.902344 25.410156 82.210938 "/>
<path style=" stroke:none;fill-rule:nonzero;fill:rgb(92.498779%,0%,54.899597%);fill-opacity:1;" d="M 62.238281 82.46875 C 62.847656 82.96875 63.242188 83.65625 63.050781 84.453125 C 62.902344 84.871094 62.550781 85.394531 62.074219 85.492188 C 61.34375 85.675781 60.414063 85.746094 59.800781 85.242188 C 59.328125 84.902344 59.199219 84.40625 59.023438 83.933594 C 58.953125 83.355469 59.257813 82.875 59.6875 82.5 C 60.148438 82.21875 60.636719 81.941406 61.21875 82.015625 C 61.570313 82.140625 61.929688 82.238281 62.238281 82.46875 "/>
<path style=" stroke:none;fill-rule:nonzero;fill:rgb(0%,70.599365%,94.499207%);fill-opacity:1;" d="M 50.445313 88.894531 C 50.152344 88.21875 50.070313 87.445313 49.664063 86.816406 C 49.027344 85.234375 47.847656 83.925781 46.476563 82.691406 C 45.996094 82.359375 45.597656 81.890625 45.007813 81.808594 C 44.355469 81.511719 43.644531 81.394531 42.878906 81.335938 C 41.742188 81.402344 40.433594 81.105469 39.492188 81.671875 C 38.914063 81.839844 38.421875 82.246094 37.824219 82.386719 C 36.492188 82.734375 35.429688 84.023438 34.746094 85.171875 C 34.578125 85.769531 34.074219 86.257813 34.128906 86.957031 C 34.128906 87.769531 33.628906 88.417969 33.78125 89.285156 C 34.035156 90.265625 33.988281 91.34375 34.425781 92.230469 C 34.699219 93.058594 35.136719 93.824219 35.710938 94.515625 C 36.402344 95.308594 37.191406 96 38.054688 96.453125 C 38.324219 96.597656 38.613281 96.664063 38.867188 96.847656 C 39.339844 97.15625 39.96875 97.164063 40.460938 97.453125 C 40.957031 97.699219 41.546875 97.699219 42.113281 97.769531 C 42.863281 97.84375 43.492188 97.691406 44.058594 97.261719 C 44.363281 97.039063 44.792969 97.164063 45.125 97.261719 C 45.472656 97.308594 45.765625 97.164063 46.082031 97.070313 C 46.570313 96.773438 47.074219 96.503906 47.601563 96.277344 C 48.597656 95.640625 49.289063 94.574219 49.800781 93.585938 C 50.039063 93.089844 50.191406 92.570313 50.398438 92.046875 C 50.589844 91.074219 50.574219 89.894531 50.445313 88.894531 Z M 48.492188 92.804688 C 48.308594 93.195313 48.148438 93.609375 47.855469 93.960938 C 47.363281 94.414063 46.945313 95.058594 46.308594 95.148438 C 45.183594 95.339844 43.90625 95.242188 42.722656 95.242188 C 41.800781 95.195313 41.019531 94.78125 40.199219 94.523438 C 39.074219 93.925781 37.992188 92.875 37.367188 91.757813 C 37.066406 91.304688 36.929688 90.777344 36.667969 90.308594 C 36.460938 89.699219 36.421875 89.046875 36.253906 88.425781 L 36.261719 88.035156 C 36.421875 87.277344 36.453125 86.472656 36.730469 85.769531 C 37.058594 85.285156 37.601563 85.148438 38.03125 84.820313 C 38.4375 84.367188 38.957031 84.167969 39.449219 83.902344 C 39.898438 83.757813 40.429688 83.796875 40.910156 83.738281 C 41.554688 83.730469 42.167969 83.785156 42.710938 84 C 43.054688 84.167969 43.4375 84.265625 43.789063 84.4375 C 45.527344 85.484375 47.074219 87.183594 48.007813 88.945313 C 48.15625 89.605469 48.589844 90.164063 48.621094 90.867188 C 48.714844 91.511719 48.660156 92.207031 48.492188 92.804688 "/>
<path style=" stroke:none;fill-rule:nonzero;fill:rgb(92.498779%,0%,54.899597%);fill-opacity:1;" d="M 44.058594 86.207031 C 44.929688 86.695313 45.84375 87.5625 46.242188 88.472656 C 46.492188 89.121094 46.476563 90.019531 46.316406 90.691406 C 46.042969 91.222656 45.84375 91.824219 45.261719 92.175781 C 44.808594 92.515625 44.273438 92.644531 43.753906 92.824219 C 43.132813 93.019531 42.367188 93 41.714844 92.914063 C 41.179688 92.78125 40.726563 92.460938 40.214844 92.292969 C 39.640625 91.894531 39.113281 91.328125 38.851563 90.707031 C 38.757813 90.0625 38.359375 89.535156 38.523438 88.824219 C 38.789063 88.21875 38.691406 87.445313 39.339844 87.023438 C 39.648438 86.695313 40.183594 86.910156 40.460938 86.503906 C 41.347656 85.570313 43.019531 85.675781 44.058594 86.207031 "/>
<path style=" stroke:none;fill-rule:nonzero;fill:rgb(92.498779%,0%,54.899597%);fill-opacity:1;" d="M 23.488281 88.433594 C 23.808594 88.925781 24.261719 89.484375 23.988281 90.101563 C 23.835938 90.585938 23.40625 91 22.960938 91.25 C 22.394531 91.429688 21.644531 91.414063 21.125 91.160156 C 20.546875 90.875 20.089844 90.285156 20.027344 89.667969 C 19.960938 89.121094 20.035156 88.546875 20.535156 88.226563 C 20.949219 88.027344 21.292969 87.660156 21.789063 87.652344 C 22.496094 87.554688 23.007813 87.988281 23.488281 88.433594 "/>
<path style=" stroke:none;fill-rule:nonzero;fill:rgb(92.498779%,0%,54.899597%);fill-opacity:1;" d="M 23.847656 94.703125 C 24.386719 95.179688 24.84375 95.761719 24.738281 96.503906 C 24.675781 96.957031 24.363281 97.308594 24.085938 97.667969 C 23.75 97.921875 23.304688 97.929688 22.914063 98.015625 C 22.464844 98.03125 22.003906 97.960938 21.636719 97.722656 C 20.949219 97.140625 20.480469 96.34375 20.777344 95.464844 C 21.039063 94.734375 21.804688 94.507813 22.410156 94.238281 C 22.976563 94.101563 23.398438 94.476563 23.847656 94.703125 "/>
<path style=" stroke:none;fill-rule:nonzero;fill:rgb(92.498779%,0%,54.899597%);fill-opacity:1;" d="M 58.195313 98.023438 C 58.683594 98.328125 58.953125 98.820313 59.082031 99.324219 C 59.152344 99.859375 58.90625 100.320313 58.578125 100.707031 C 57.863281 101.308594 56.632813 101.328125 55.835938 100.902344 C 55.230469 100.367188 54.785156 99.660156 55.007813 98.820313 C 55.199219 98.101563 55.980469 97.824219 56.554688 97.53125 C 57.191406 97.257813 57.695313 97.746094 58.195313 98.023438 "/>
<path style=" stroke:none;fill-rule:nonzero;fill:rgb(92.498779%,0%,54.899597%);fill-opacity:1;" d="M 27.15625 100.679688 C 27.808594 101.164063 28.152344 101.867188 27.992188 102.664063 C 27.921875 103.082031 27.554688 103.429688 27.21875 103.6875 C 26.550781 103.886719 25.695313 104.070313 25.042969 103.703125 C 24.386719 103.417969 24.15625 102.722656 23.957031 102.132813 C 23.925781 101.589844 24.199219 101.148438 24.585938 100.773438 C 25.074219 100.535156 25.53125 100.144531 26.140625 100.21875 C 26.484375 100.359375 26.835938 100.488281 27.15625 100.679688 "/>
<path style=" stroke:none;fill-rule:nonzero;fill:rgb(92.498779%,0%,54.899597%);fill-opacity:1;" d="M 53.613281 102.816406 C 53.972656 103.222656 54.335938 103.648438 54.394531 104.195313 C 54.464844 104.796875 54.148438 105.273438 53.707031 105.664063 C 53.253906 106 52.632813 105.925781 52.054688 105.941406 C 51.441406 105.960938 50.917969 105.570313 50.628906 105.066406 C 50.28125 104.578125 50.214844 103.792969 50.542969 103.28125 C 50.8125 102.667969 51.46875 102.625 51.960938 102.332031 C 52.589844 102.132813 53.109375 102.53125 53.613281 102.816406 "/>
<path style=" stroke:none;fill-rule:nonzero;fill:rgb(92.498779%,0%,54.899597%);fill-opacity:1;" d="M 33.308594 104.953125 C 33.597656 105.425781 33.941406 105.96875 33.71875 106.566406 C 33.566406 106.917969 33.390625 107.339844 32.992188 107.511719 C 32.511719 107.679688 32.027344 107.976563 31.46875 107.824219 C 31.078125 107.625 30.601563 107.609375 30.28125 107.257813 C 29.699219 106.75 29.605469 105.863281 29.867188 105.175781 C 30.183594 104.75 30.640625 104.433594 31.109375 104.246094 C 31.921875 104.023438 32.761719 104.285156 33.308594 104.953125 "/>
<path style=" stroke:none;fill-rule:nonzero;fill:rgb(92.498779%,0%,54.899597%);fill-opacity:1;" d="M 47.855469 106.660156 C 48.085938 107.21875 47.839844 107.808594 47.480469 108.238281 C 47.011719 108.78125 46.285156 108.792969 45.597656 108.75 C 44.917969 108.703125 44.234375 108.246094 43.996094 107.578125 C 43.8125 107.113281 43.8125 106.453125 44.113281 106.03125 C 44.492188 105.414063 45.152344 105.265625 45.78125 105.1875 C 46.707031 105.128906 47.480469 105.910156 47.855469 106.660156 "/>
<path style=" stroke:none;fill-rule:nonzero;fill:rgb(92.498779%,0%,54.899597%);fill-opacity:1;" d="M 40.265625 106.652344 C 40.703125 107.113281 40.941406 107.792969 40.671875 108.40625 C 40.480469 109.132813 39.707031 109.453125 39.066406 109.582031 C 38.359375 109.683594 37.800781 109.371094 37.296875 108.957031 C 36.875 108.484375 36.597656 107.894531 36.75 107.226563 C 36.78125 106.707031 37.320313 106.46875 37.6875 106.214844 C 38.113281 105.765625 38.890625 105.839844 39.425781 105.996094 C 39.738281 106.132813 40.007813 106.40625 40.265625 106.652344 "/>
<path style=" stroke:none;fill-rule:nonzero;fill:rgb(0%,36.499023%,67.498779%);fill-opacity:1;" d="M 109.855469 101.515625 C 109.796875 101.289063 109.765625 100.980469 109.765625 100.582031 C 108.4375 101.476563 106.851563 101.917969 105.011719 101.917969 C 103.039063 101.917969 101.527344 101.382813 100.472656 100.304688 C 99.558594 99.371094 99.101563 98.234375 99.101563 96.886719 C 99.101563 93.695313 100.957031 91.976563 104.667969 91.726563 C 106.636719 91.601563 108.136719 91.40625 109.171875 91.136719 C 109.171875 90.699219 108.96875 90.371094 108.554688 90.140625 C 108.222656 89.933594 107.824219 89.832031 107.371094 89.832031 C 106.457031 89.832031 105.828125 90.140625 105.476563 90.761719 L 99.476563 90.234375 C 99.953125 88.246094 100.867188 86.867188 102.214844 86.101563 C 103.371094 85.4375 105.226563 85.105469 107.773438 85.105469 C 110.902344 85.105469 113.046875 85.675781 114.210938 86.816406 C 115.222656 87.8125 115.730469 89.519531 115.730469 91.945313 L 115.730469 96.886719 C 115.730469 97.902344 115.78125 98.667969 115.886719 99.1875 C 116.03125 99.808594 116.332031 100.582031 116.789063 101.515625 Z M 107.09375 95.363281 C 106.097656 95.613281 105.597656 96.035156 105.597656 96.636719 C 105.597656 97.15625 106.015625 97.414063 106.84375 97.414063 C 108.105469 97.414063 108.894531 96.542969 109.203125 94.804688 L 107.09375 95.363281 "/>
<path style=" stroke:none;fill-rule:nonzero;fill:rgb(0%,36.499023%,67.498779%);fill-opacity:1;" d="M 128.957031 101.917969 L 128.957031 93.746094 C 128.957031 92.730469 128.894531 92.058594 128.769531 91.726563 C 128.5625 91.144531 128.128906 90.855469 127.464844 90.855469 C 126.597656 90.855469 126.015625 91.25 125.726563 92.035156 C 125.519531 92.574219 125.414063 93.46875 125.414063 94.710938 L 125.414063 101.917969 L 118.855469 101.917969 L 118.855469 85.945313 L 124.980469 85.945313 L 124.980469 87.1875 C 126.429688 86.089844 127.941406 85.542969 129.515625 85.542969 C 132.085938 85.542969 133.824219 86.433594 134.738281 88.214844 C 135.277344 89.207031 135.546875 90.660156 135.546875 92.566406 L 135.546875 101.917969 L 128.957031 101.917969 "/>
<path style=" stroke:none;fill-rule:nonzero;fill:rgb(0%,36.499023%,67.498779%);fill-opacity:1;" d="M 138.71875 83.613281 L 138.71875 78.808594 L 145.335938 78.808594 L 145.335938 83.613281 Z M 138.71875 101.917969 L 138.71875 85.996094 L 145.335938 85.996094 L 145.335938 101.917969 L 138.71875 101.917969 "/>
<path style=" stroke:none;fill-rule:nonzero;fill:rgb(0%,36.499023%,67.498779%);fill-opacity:1;" d="M 70.925781 95.136719 L 70.910156 95.316406 C 70.683594 97.632813 69.25 97.816406 68.816406 97.816406 C 66.527344 97.816406 66.1875 94.96875 66.1875 93.273438 C 66.1875 89.722656 67.53125 89.265625 68.703125 89.265625 C 69.441406 89.265625 70.699219 89.570313 70.835938 91.597656 L 70.84375 91.785156 L 77.453125 91.785156 L 77.414063 91.554688 C 76.441406 85.40625 71.078125 84.746094 68.816406 84.746094 C 64.339844 84.746094 59.523438 87.539063 59.523438 93.675781 C 59.523438 98.9375 63.15625 102.335938 68.777344 102.335938 C 74.511719 102.335938 77.34375 98.828125 77.609375 95.347656 L 77.625 95.136719 L 70.925781 95.136719 "/>
<path style=" stroke:none;fill-rule:nonzero;fill:rgb(0%,36.499023%,67.498779%);fill-opacity:1;" d="M 90.484375 96.683594 C 90.175781 97.292969 89.753906 98.132813 88.46875 98.132813 C 86.382813 98.132813 86.074219 96.082031 86.042969 95.015625 C 86.457031 95.015625 97.617188 95.015625 97.617188 95.015625 L 97.601563 94.800781 C 97.410156 92.339844 96.839844 84.847656 88.394531 84.847656 C 82.929688 84.847656 79.261719 88.402344 79.261719 93.695313 C 79.261719 99.664063 83.925781 102.335938 88.546875 102.335938 C 91.453125 102.335938 93.796875 101.410156 95.527344 99.585938 C 96.488281 98.570313 96.851563 97.722656 97.199219 96.804688 L 97.300781 96.535156 L 90.5625 96.535156 Z M 86.097656 91.183594 C 86.394531 90.152344 86.78125 89.050781 88.429688 89.050781 C 89.964844 89.050781 90.410156 90 90.726563 91.183594 L 86.097656 91.183594 "/>
<path style=" stroke:none;fill-rule:nonzero;fill:rgb(0%,36.499023%,67.498779%);fill-opacity:1;" d="M 158.464844 95.136719 L 158.445313 95.316406 C 158.21875 97.632813 156.785156 97.816406 156.351563 97.816406 C 154.0625 97.816406 153.722656 94.96875 153.722656 93.273438 C 153.722656 89.722656 155.066406 89.265625 156.234375 89.265625 C 156.972656 89.265625 158.234375 89.570313 158.367188 91.597656 L 158.378906 91.785156 L 164.988281 91.785156 L 164.949219 91.554688 C 163.976563 85.40625 158.609375 84.746094 156.351563 84.746094 C 151.875 84.746094 147.058594 87.539063 147.058594 93.675781 C 147.058594 98.9375 150.691406 102.335938 156.3125 102.335938 C 162.046875 102.335938 164.878906 98.828125 165.144531 95.347656 L 165.160156 95.136719 L 158.464844 95.136719 "/>
<path style=" stroke:none;fill-rule:nonzero;fill:rgb(92.498779%,0%,54.899597%);fill-opacity:1;" d="M 63.117188 104.933594 L 61.84375 104.933594 L 59.453125 110.25 L 60.824219 110.25 C 60.824219 110.25 61.351563 109 61.433594 108.808594 L 63.523438 108.808594 C 63.613281 108.992188 64.203125 110.25 64.203125 110.25 L 65.570313 110.25 Z M 61.796875 107.867188 C 61.949219 107.5625 62.285156 106.875 62.5 106.433594 C 62.691406 106.882813 62.980469 107.574219 63.101563 107.867188 L 61.796875 107.867188 "/>
<path style=" stroke:none;fill-rule:nonzero;fill:rgb(92.498779%,0%,54.899597%);fill-opacity:1;" d="M 75.117188 110.25 L 76.324219 110.25 L 76.324219 104.933594 L 75.117188 104.933594 Z M 75.117188 110.25 "/>
<path style=" stroke:none;fill-rule:nonzero;fill:rgb(92.498779%,0%,54.899597%);fill-opacity:1;" d="M 92 109.757813 C 91.878906 109.6875 91.808594 109.601563 91.789063 109.488281 C 91.789063 109.488281 91.765625 108.972656 91.765625 108.972656 L 91.765625 108.792969 C 91.765625 108.699219 91.609375 108.03125 91.609375 108.03125 C 91.605469 108.03125 91.34375 107.816406 91.132813 107.644531 C 91.304688 107.539063 91.5 107.425781 91.5 107.425781 L 91.792969 107 C 91.796875 106.992188 91.875 106.675781 91.875 106.675781 C 91.875 106.675781 91.894531 106.394531 91.894531 106.394531 C 91.824219 105.921875 91.609375 105.566406 91.261719 105.3125 C 90.917969 105.0625 90.5 104.933594 90.019531 104.933594 L 86.640625 104.933594 L 86.640625 110.25 L 87.847656 110.25 C 87.847656 110.25 87.847656 108.417969 87.847656 108.117188 C 88.171875 108.117188 89.742188 108.117188 89.742188 108.117188 C 89.992188 108.148438 90.339844 108.226563 90.414063 108.421875 L 90.550781 109.152344 C 90.550781 109.21875 90.554688 109.371094 90.554688 109.371094 C 90.566406 109.511719 90.605469 109.828125 90.605469 109.828125 L 90.75 110.265625 L 90.890625 110.25 L 92.097656 110.25 L 92.097656 109.808594 Z M 89.914063 107.179688 L 89.8125 107.167969 C 89.8125 107.167969 88.171875 107.167969 87.847656 107.167969 L 87.847656 105.875 C 88.167969 105.875 89.605469 105.875 89.605469 105.875 C 89.59375 105.875 90.425781 106.101563 90.425781 106.101563 C 90.425781 106.101563 90.660156 106.496094 90.660156 106.496094 C 90.660156 106.523438 90.433594 106.976563 90.433594 106.976563 Z M 91.882813 109.894531 C 91.808594 109.851563 91.746094 109.804688 91.707031 109.75 C 91.707031 109.746094 91.707031 109.730469 91.707031 109.730469 L 91.902344 109.894531 C 91.902344 109.894531 91.886719 109.894531 91.882813 109.894531 "/>
<path style=" stroke:none;fill-rule:nonzero;fill:rgb(92.498779%,0%,54.899597%);fill-opacity:1;" d="M 103.058594 109.304688 C 103.058594 108.976563 103.058594 104.933594 103.058594 104.933594 L 101.792969 104.933594 L 101.792969 110.25 L 106.105469 110.25 L 106.105469 109.304688 C 106.105469 109.304688 103.402344 109.304688 103.058594 109.304688 "/>
<path style=" stroke:none;fill-rule:nonzero;fill:rgb(92.498779%,0%,54.899597%);fill-opacity:1;" d="M 115.953125 110.25 L 117.15625 110.25 L 117.15625 104.933594 L 115.953125 104.933594 Z M 115.953125 110.25 "/>
<path style=" stroke:none;fill-rule:nonzero;fill:rgb(92.498779%,0%,54.899597%);fill-opacity:1;" d="M 131.453125 104.933594 C 131.453125 104.933594 131.453125 107.714844 131.453125 108.546875 C 130.894531 107.828125 128.644531 104.933594 128.644531 104.933594 L 127.335938 104.933594 L 127.335938 110.25 L 128.539063 110.25 C 128.539063 110.25 128.539063 107.484375 128.539063 106.667969 C 129.097656 107.367188 131.355469 110.175781 131.355469 110.175781 L 132.464844 110.25 L 132.660156 110.25 L 132.660156 104.933594 L 131.453125 104.933594 "/>
<path style=" stroke:none;fill-rule:nonzero;fill:rgb(92.498779%,0%,54.899597%);fill-opacity:1;" d="M 144.042969 109.304688 L 144.042969 108.007813 C 144.390625 108.007813 147.417969 108.007813 147.417969 108.007813 L 147.417969 107.070313 C 147.417969 107.070313 144.390625 107.070313 144.042969 107.070313 L 144.042969 105.820313 C 144.394531 105.820313 147.546875 105.820313 147.546875 105.820313 L 147.546875 104.933594 L 142.835938 104.933594 L 142.835938 110.25 L 147.683594 110.25 L 147.683594 109.304688 C 147.683594 109.304688 144.394531 109.304688 144.042969 109.304688 "/>
<path style=" stroke:none;fill-rule:nonzero;fill:rgb(92.498779%,0%,54.899597%);fill-opacity:1;" d="M 161.902344 107.507813 L 160.554688 107.101563 L 160.132813 107.023438 C 160.125 107.023438 159.113281 106.785156 159.113281 106.785156 C 158.808594 106.683594 158.746094 106.527344 158.722656 106.414063 C 158.738281 106.226563 158.847656 106.066406 159.078125 105.957031 L 159.945313 105.769531 C 159.984375 105.769531 160.890625 105.988281 160.890625 105.988281 C 161.128906 106.105469 161.238281 106.257813 161.238281 106.472656 L 161.238281 106.652344 L 161.433594 106.726563 L 162.425781 106.726563 L 162.4375 106.558594 C 162.476563 106.015625 162.25 105.589844 161.761719 105.292969 C 161.304688 105.019531 160.695313 104.878906 159.953125 104.878906 C 159.203125 104.878906 158.617188 105.019531 158.214844 105.292969 C 157.800781 105.578125 157.566406 105.921875 157.527344 106.324219 C 157.453125 107.101563 157.839844 107.445313 158.183594 107.597656 L 159.613281 108.019531 C 159.761719 108.039063 159.894531 108.066406 159.894531 108.066406 C 159.898438 108.066406 161.011719 108.324219 161.011719 108.324219 C 161.269531 108.410156 161.382813 108.554688 161.382813 108.792969 C 161.34375 109.058594 161.207031 109.203125 160.960938 109.3125 L 160.035156 109.492188 C 159.976563 109.492188 158.945313 109.210938 158.945313 109.210938 C 158.664063 109.054688 158.527344 108.8125 158.527344 108.472656 L 158.527344 108.292969 L 157.324219 108.292969 L 157.320313 108.46875 C 157.304688 109.136719 157.589844 109.640625 158.171875 109.960938 C 158.726563 110.265625 159.339844 110.417969 160.003906 110.417969 C 160.703125 110.410156 161.324219 110.253906 161.878906 109.957031 C 162.46875 109.644531 162.75 109.179688 162.710938 108.570313 C 162.628906 108.0625 162.355469 107.707031 161.902344 107.507813 "/>
<path style=" stroke:none;fill-rule:nonzero;fill:rgb(0%,36.499023%,67.498779%);fill-opacity:1;" d="M 9.714844 116.710938 L 175.21875 116.710938 L 175.21875 113.585938 L 9.714844 113.585938 Z M 9.714844 116.710938 "/>
</g>
</svg>
