<svg width="96" height="92" viewBox="0 0 96 92" fill="none" xmlns="http://www.w3.org/2000/svg">
<path d="M47.9011 49.6407C60.7433 40.3126 73.1963 32.3448 73.1963 19.5186C73.1963 9.99611 67.3589 3 58.6029 3C54.7113 3 50.6252 5.72071 47.9011 10.1904C45.177 5.72071 41.0909 3 37.1993 3C28.4433 3 22.606 9.99611 22.606 19.5186C22.606 32.3448 35.059 40.3126 47.9011 49.6407Z" stroke="#151A35" stroke-width="5" stroke-miterlimit="10" stroke-linecap="round" stroke-linejoin="round"/>
<path d="M27.0819 64.4101L15.018 52.1669C14.2397 51.3896 13.656 50.2236 13.4614 49.0576L11.321 34.288C10.7373 31.9559 8.40236 30.5956 6.06743 31.1786C3.73249 31.7616 2.56502 34.0936 3.14876 36.4257L5.87285 53.5273C6.06743 54.499 6.65116 55.665 7.62405 56.6367C7.62405 56.6367 16.5746 65.7705 20.0771 69.2685C20.8554 70.0459 21.2445 71.2119 21.2445 72.3779V80.7344" stroke="#151A35" stroke-width="5" stroke-miterlimit="10" stroke-linecap="round" stroke-linejoin="round"/>
<path d="M27.082 64.4102L17.5477 54.6934C16.3802 53.5274 15.9911 51.584 16.5748 50.2237C16.964 49.0576 17.9369 48.086 19.1043 47.6973C20.661 47.1143 22.4122 47.503 23.5796 48.669L33.3085 58.5801L36.811 62.0782C38.3676 63.6329 39.3405 65.9649 39.3405 68.297V73.1554" stroke="#151A35" stroke-width="5" stroke-miterlimit="10" stroke-linecap="round" stroke-linejoin="round"/>
<path d="M44.01 88.5081V80.7346H17.1582V88.5081" stroke="#151A35" stroke-width="5" stroke-miterlimit="10" stroke-linecap="round" stroke-linejoin="round"/>
<path d="M68.7217 64.4101L80.7855 52.1669C81.5638 51.3896 82.1476 50.2236 82.3421 49.0576L84.4825 34.288C85.0662 31.9559 87.4012 30.5956 89.7361 31.1786C92.0711 31.7616 93.2385 34.0936 92.6548 36.4257L89.9307 53.5273C89.7361 54.499 89.1524 55.665 88.1795 56.6367C88.1795 56.6367 79.2289 65.7705 75.7265 69.2685C74.9482 70.0459 74.559 71.2119 74.559 72.3779V80.7344" stroke="#151A35" stroke-width="5" stroke-miterlimit="10" stroke-linecap="round" stroke-linejoin="round"/>
<path d="M68.7218 64.4102L78.2561 54.6934C79.4236 53.5274 79.8128 51.584 79.229 50.2237C78.8399 49.0576 77.867 48.086 76.6995 47.6973C75.1429 47.1143 73.3917 47.503 72.2242 48.669L62.4953 58.5801L58.9929 62.0782C57.4363 63.6329 56.4634 65.9649 56.4634 68.297V73.1554" stroke="#151A35" stroke-width="5" stroke-miterlimit="10" stroke-linecap="round" stroke-linejoin="round"/>
<path d="M51.793 88.5081V80.7346H78.6447V88.5081" stroke="#151A35" stroke-width="5" stroke-miterlimit="10" stroke-linecap="round" stroke-linejoin="round"/>
</svg>
