<svg width="95" height="114" viewBox="0 0 95 114" fill="none" xmlns="http://www.w3.org/2000/svg">
<path d="M47.4286 110.653C62.1602 105.972 91.8571 87.25 91.8571 70.8681C91.8571 61.5069 91.8571 17.7438 91.8571 17.7438C59.8218 17.7438 47.4286 3 47.4286 3C47.4286 3 35.0353 17.7438 3 17.7438C3 17.7438 3 61.5069 3 70.8681C3 87.25 32.697 105.972 47.4286 110.653Z" stroke="#151A35" stroke-width="5" stroke-miterlimit="10" stroke-linecap="round" stroke-linejoin="round"/>
<path d="M42.0501 57.0603L33.3982 74.1444C32.9305 74.8465 33.3982 75.5485 34.0997 75.5485H38.7764C39.7117 75.5485 40.8809 75.0805 41.5824 74.3784L53.7418 60.8048C54.2095 60.3367 54.6771 60.3367 55.1448 60.3367C67.0704 60.3367 77.3591 60.3367 78.5283 60.3367C81.3343 60.3367 81.5681 59.1666 81.5681 57.9965C81.5681 57.0603 73.3839 49.1034 65.1997 49.1034C61.926 49.1034 58.6523 49.1034 54.911 49.1034C54.4433 49.1034 53.9756 48.8694 53.508 48.6353L41.1147 35.0617C40.4132 34.3597 39.244 33.8916 38.3087 33.8916H33.632C32.9305 33.8916 32.4628 34.5937 32.9305 35.2958L39.244 48.4013C39.4779 48.6353 39.244 49.1034 38.7764 49.1034C32.9305 49.1034 28.02 49.1034 26.3831 49.1034C25.9155 49.1034 25.4478 48.8694 25.214 48.4013L21.7064 42.5506C21.2388 41.6145 20.3034 41.1465 19.1343 41.1465H15.8606C15.1591 41.1465 14.6914 42.0826 14.6914 42.7847L17.4974 58.6985C17.7313 59.6347 18.4328 60.3367 19.3681 60.3367C21.9403 60.3367 24.9801 60.3367 31.2937 60.3367" stroke="#151A35" stroke-width="5" stroke-miterlimit="10" stroke-linecap="round" stroke-linejoin="round"/>
</svg>
