<?xml version="1.0" encoding="UTF-8"?>
<svg xmlns="http://www.w3.org/2000/svg" xmlns:xlink="http://www.w3.org/1999/xlink" width="256pt" height="256pt" viewBox="0 0 256 256" version="1.1">
<g id="surface1">
<path style=" stroke:none;fill-rule:nonzero;fill:rgb(49.411765%,54.509804%,58.823529%);fill-opacity:1;" d="M 217.25 145.125 C 217.25 145.125 183.980469 182.324219 183.980469 201.148438 C 183.980469 219.96875 198.558594 240.125 217.25 240.125 C 231.71875 240.125 252.25 237.914062 252.25 218 C 252.25 195.734375 239.421875 183.40625 217.25 145.125 "/>
<path style=" stroke:none;fill-rule:nonzero;fill:rgb(49.411765%,54.509804%,58.823529%);fill-opacity:1;" d="M 38.75 145.125 C 16.578125 183.40625 3.75 195.734375 3.75 218 C 3.75 237.914062 24.28125 240.125 38.75 240.125 C 57.441406 240.125 72.019531 219.96875 72.019531 201.148438 C 72.019531 182.324219 38.75 145.125 38.75 145.125 "/>
<path style=" stroke:none;fill-rule:nonzero;fill:rgb(63.529412%,67.058824%,72.156863%);fill-opacity:1;" d="M 217.25 187.375 C 217.25 187.375 197.945312 194.746094 197.945312 220.820312 C 197.945312 232.859375 205.398438 240.125 217.25 240.125 C 231.71875 240.125 252.25 237.914062 252.25 218 C 252.25 195.734375 217.25 187.375 217.25 187.375 "/>
<path style=" stroke:none;fill-rule:nonzero;fill:rgb(63.529412%,67.058824%,72.156863%);fill-opacity:1;" d="M 38.75 187.375 C 38.75 187.375 3.75 195.734375 3.75 218 C 3.75 237.914062 24.28125 240.125 38.75 240.125 C 50.601562 240.125 58.054688 232.859375 58.054688 220.820312 C 58.054688 194.746094 38.75 187.375 38.75 187.375 "/>
<path style=" stroke:none;fill-rule:nonzero;fill:rgb(78.431373%,82.352941%,86.27451%);fill-opacity:1;" d="M 38.75 240.125 C 38.75 244.25 42.125 247.625 46.25 247.625 L 209.75 247.625 C 213.875 247.625 217.25 244.25 217.25 240.125 L 125.058594 235.125 Z M 38.75 240.125 "/>
<path style=" stroke:none;fill-rule:nonzero;fill:rgb(91.372549%,92.941176%,94.509804%);fill-opacity:1;" d="M 217.25 240.125 L 217.25 236.371094 C 217.25 234.308594 215.566406 232.625 213.503906 232.625 L 128 225.125 L 42.496094 232.625 C 40.433594 232.625 38.75 234.308594 38.75 236.371094 L 38.75 240.125 Z M 217.25 240.125 "/>
<path style=" stroke:none;fill-rule:nonzero;fill:rgb(30.588235%,35.294118%,38.039216%);fill-opacity:1;" d="M 128 127.625 C 85.699219 127.625 59.988281 117.625 59.988281 117.625 C 59.988281 117.625 64.859375 82.511719 79.957031 61.855469 C 88.917969 49.597656 103.804688 38.945312 128 38.945312 C 152.195312 38.945312 167.082031 49.597656 176.042969 61.855469 C 191.140625 82.511719 196.011719 117.625 196.011719 117.625 C 196.011719 117.625 170.300781 127.625 128 127.625 Z M 128 127.625 "/>
<path style=" stroke:none;fill-rule:nonzero;fill:rgb(73.72549%,81.960784%,88.235294%);fill-opacity:1;" d="M 166.023438 117.625 L 89.976562 117.625 L 86.515625 95.566406 C 86.515625 95.566406 59.988281 41.582031 128 41.582031 C 196.011719 41.582031 169.484375 95.566406 169.484375 95.566406 Z M 166.023438 117.625 "/>
<path style=" stroke:none;fill-rule:nonzero;fill:rgb(97.647059%,78.431373%,86.27451%);fill-opacity:1;" d="M 99.128906 71.035156 C 85.332031 71.035156 79.070312 74.53125 79.070312 80.214844 C 79.070312 94.210938 86.761719 102.625 100.554688 102.625 C 114.351562 102.625 121.542969 95.636719 121.542969 81.644531 C 121.542969 75.957031 112.925781 71.035156 99.128906 71.035156 Z M 99.128906 71.035156 "/>
<path style=" stroke:none;fill-rule:nonzero;fill:rgb(97.647059%,78.431373%,86.27451%);fill-opacity:1;" d="M 156.871094 71.035156 C 170.667969 71.035156 176.929688 74.53125 176.929688 80.214844 C 176.929688 94.210938 169.238281 102.625 155.445312 102.625 C 141.648438 102.625 134.457031 95.636719 134.457031 81.644531 C 134.457031 75.957031 143.074219 71.035156 156.871094 71.035156 Z M 156.871094 71.035156 "/>
<path style=" stroke:none;fill-rule:nonzero;fill:rgb(63.529412%,67.058824%,72.156863%);fill-opacity:1;" d="M 128 53.945312 C 152.195312 53.945312 167.082031 64.597656 176.042969 76.855469 C 191.140625 97.511719 196.011719 117.625 196.011719 117.625 C 184.378906 60.726562 180.859375 8.375 128 8.375 C 75.140625 8.375 71.621094 60.726562 59.988281 117.625 C 59.988281 117.625 64.859375 97.511719 79.957031 76.855469 C 88.917969 64.597656 103.804688 53.945312 128 53.945312 Z M 128 53.945312 "/>
<path style=" stroke:none;fill-rule:nonzero;fill:rgb(78.431373%,82.352941%,86.27451%);fill-opacity:1;" d="M 209.75 232.625 L 46.25 232.625 C 42.125 232.625 38.75 229.25 38.75 225.125 L 38.75 125.125 C 38.75 121 42.125 117.625 46.25 117.625 L 46.738281 117.625 L 217.25 224.308594 L 217.25 225.125 C 217.25 229.25 213.875 232.625 209.75 232.625 Z M 209.75 232.625 "/>
<path style=" stroke:none;fill-rule:nonzero;fill:rgb(91.372549%,92.941176%,94.509804%);fill-opacity:1;" d="M 209.75 117.625 L 46.738281 117.625 L 46.738281 216.808594 C 46.738281 220.933594 50.113281 224.308594 54.238281 224.308594 L 217.25 224.308594 L 217.25 125.125 C 217.25 121 213.875 117.625 209.75 117.625 Z M 209.75 117.625 "/>
<path style=" stroke:none;fill-rule:nonzero;fill:rgb(0%,0%,0%);fill-opacity:1;" d="M 236.125 168.933594 C 235.289062 167.601562 234.429688 166.234375 233.546875 164.820312 C 232.445312 163.0625 230.132812 162.53125 228.378906 163.628906 C 226.621094 164.726562 226.089844 167.039062 227.1875 168.796875 C 228.074219 170.214844 228.933594 171.585938 229.773438 172.921875 C 235.242188 181.636719 239.59375 188.578125 242.726562 194.980469 C 234.886719 189.191406 225.621094 185.914062 221 184.523438 L 221 125.125 C 221 118.921875 215.953125 113.875 209.75 113.875 L 199.078125 113.875 C 198.046875 108.710938 197.0625 103.566406 196.109375 98.566406 C 189.902344 66 184.542969 37.875 168.542969 20.6875 C 167.132812 19.171875 164.757812 19.085938 163.242188 20.496094 C 161.726562 21.910156 161.644531 24.28125 163.054688 25.796875 C 175.1875 38.828125 180.792969 59.910156 185.800781 84.8125 C 183.816406 81.5 181.582031 78.082031 179.066406 74.640625 C 167.378906 58.648438 149.71875 50.195312 128 50.195312 C 106.28125 50.195312 88.621094 58.648438 76.929688 74.640625 C 74.417969 78.078125 72.179688 81.496094 70.199219 84.8125 C 78.578125 43.144531 88.640625 12.125 128 12.125 C 138.261719 12.125 146.699219 14.152344 153.796875 18.320312 C 155.582031 19.367188 157.878906 18.769531 158.929688 16.984375 C 159.976562 15.199219 159.378906 12.898438 157.59375 11.851562 C 149.316406 6.988281 139.636719 4.625 128 4.625 C 105.21875 4.625 88.980469 14.078125 78.355469 33.53125 C 69.03125 50.605469 64.589844 73.902344 59.890625 98.566406 C 58.9375 103.566406 57.953125 108.710938 56.917969 113.875 L 46.25 113.875 C 40.046875 113.875 35 118.921875 35 125.125 L 35 144.113281 C 29.320312 153.882812 24.308594 161.867188 19.875 168.933594 C 7.480469 188.679688 0 200.601562 0 218 C 0 228.261719 4.949219 235.859375 14.320312 239.964844 C 21.144531 242.957031 29.261719 243.6875 35.632812 243.839844 C 37.171875 248.222656 41.347656 251.375 46.25 251.375 L 209.75 251.375 C 214.652344 251.375 218.828125 248.222656 220.367188 243.839844 C 226.738281 243.6875 234.855469 242.957031 241.679688 239.964844 C 251.050781 235.859375 256 228.261719 256 218 C 256 200.601562 248.519531 188.679688 236.125 168.933594 Z M 190.972656 113.875 L 172.101562 113.875 L 174.84375 98.398438 C 177.03125 95.820312 178.617188 92.664062 179.582031 89.054688 C 185.664062 99.332031 189.21875 108.585938 190.972656 113.875 Z M 172.542969 78.445312 C 172.550781 78.453125 172.554688 78.460938 172.5625 78.464844 C 172.96875 79 173.179688 79.585938 173.179688 80.214844 C 173.179688 88.726562 170.105469 98.875 155.445312 98.875 C 143.683594 98.875 138.207031 93.398438 138.207031 81.640625 C 138.207031 78.839844 144.855469 74.785156 156.871094 74.785156 C 165.160156 74.785156 170.738281 76.125 172.542969 78.445312 Z M 161.328125 67.414062 C 159.925781 67.332031 158.441406 67.285156 156.871094 67.285156 C 145.242188 67.285156 136.261719 70.652344 132.558594 75.941406 C 131.320312 75.613281 129.816406 75.425781 128 75.425781 C 126.183594 75.425781 124.679688 75.613281 123.441406 75.941406 C 119.738281 70.652344 110.757812 67.285156 99.128906 67.285156 C 97.558594 67.285156 96.074219 67.332031 94.671875 67.414062 C 103.722656 60.960938 114.871094 57.695312 128 57.695312 C 141.128906 57.695312 152.277344 60.960938 161.328125 67.414062 Z M 82.820312 80.214844 C 82.820312 79.582031 83.03125 78.996094 83.441406 78.464844 C 83.445312 78.457031 83.449219 78.453125 83.453125 78.445312 C 85.261719 76.125 90.839844 74.785156 99.128906 74.785156 C 111.144531 74.785156 117.792969 78.839844 117.792969 81.644531 C 117.792969 93.398438 112.316406 98.875 100.554688 98.875 C 85.894531 98.875 82.820312 88.726562 82.820312 80.214844 Z M 76.417969 89.054688 C 77.382812 92.664062 78.96875 95.820312 81.15625 98.398438 L 83.898438 113.875 L 65.027344 113.875 C 66.78125 108.585938 70.335938 99.328125 76.417969 89.054688 Z M 7.5 218 C 7.5 202.757812 14.152344 192.160156 26.226562 172.921875 C 28.929688 168.613281 31.847656 163.964844 35 158.78125 L 35 184.527344 C 32.222656 185.371094 27.742188 186.902344 22.90625 189.25 C 21.042969 190.15625 20.265625 192.398438 21.171875 194.261719 C 21.820312 195.597656 23.15625 196.375 24.546875 196.375 C 25.097656 196.375 25.65625 196.253906 26.183594 196 C 29.460938 194.40625 32.585938 193.222656 35 192.40625 L 35 225.125 C 35 227.441406 35.703125 229.597656 36.910156 231.390625 C 35.738281 232.703125 35.019531 234.421875 35.003906 236.3125 C 16.023438 235.671875 7.5 229.949219 7.5 218 Z M 213.5 240.125 C 213.5 242.191406 211.816406 243.875 209.75 243.875 L 46.25 243.875 C 44.183594 243.875 42.5 242.191406 42.5 240.125 L 42.496094 236.375 L 120.460938 236.375 C 122.53125 236.375 124.210938 234.695312 124.210938 232.625 C 124.210938 230.554688 122.53125 228.875 120.460938 228.875 L 46.25 228.875 C 44.183594 228.875 42.5 227.191406 42.5 225.125 L 42.5 125.125 C 42.5 123.058594 44.183594 121.375 46.25 121.375 L 126.601562 121.375 L 110.417969 171.726562 C 110.050781 172.867188 110.253906 174.117188 110.957031 175.085938 C 111.664062 176.050781 112.789062 176.625 113.988281 176.625 L 133.34375 176.625 L 120.683594 216.015625 C 120.050781 217.988281 121.132812 220.101562 123.105469 220.734375 C 125.074219 221.367188 127.1875 220.285156 127.824219 218.3125 L 142.058594 174.023438 C 142.425781 172.882812 142.222656 171.632812 141.519531 170.664062 C 140.8125 169.699219 139.6875 169.125 138.488281 169.125 L 119.132812 169.125 L 135.316406 118.773438 C 135.683594 117.632812 135.484375 116.382812 134.777344 115.414062 C 134.070312 114.449219 132.945312 113.875 131.746094 113.875 L 91.515625 113.875 L 89.855469 104.511719 C 93.019531 105.742188 96.617188 106.375 100.554688 106.375 C 115.984375 106.375 124.710938 98.15625 125.261719 83.179688 C 126.722656 82.839844 129.277344 82.839844 130.738281 83.179688 C 131.289062 98.15625 140.015625 106.375 155.445312 106.375 C 159.382812 106.375 162.980469 105.742188 166.144531 104.511719 L 164.484375 113.875 L 146.746094 113.875 C 144.675781 113.875 142.996094 115.554688 142.996094 117.625 C 142.996094 119.695312 144.675781 121.375 146.746094 121.375 L 209.75 121.375 C 211.816406 121.375 213.5 123.058594 213.5 125.125 L 213.5 225.125 C 213.5 227.191406 211.816406 228.875 209.75 228.875 L 135.460938 228.875 C 133.390625 228.875 131.710938 230.554688 131.710938 232.625 C 131.710938 234.695312 133.390625 236.375 135.460938 236.375 L 209.65625 236.371094 C 209.6875 236.371094 209.71875 236.375 209.75 236.375 C 209.8125 236.375 209.871094 236.371094 209.933594 236.371094 L 213.5 236.371094 Z M 220.996094 236.3125 C 220.984375 234.421875 220.261719 232.703125 219.089844 231.390625 C 220.296875 229.597656 221 227.441406 221 225.125 L 221 192.40625 C 229.890625 195.394531 248.5 203.398438 248.5 217.996094 C 248.5 229.949219 239.976562 235.671875 220.996094 236.3125 Z M 220.996094 236.3125 "/>
</g>
</svg>
