<?xml version="1.0"?>
<svg xmlns="http://www.w3.org/2000/svg" viewBox="0 0 427.49 79.25">
  <defs>
    <style>.cls-1{fill:#25bf75;}.cls-2{fill:#fff;}</style>
  </defs>
  <g id="Capa_2" data-name="Capa 2">
    <g id="Capa_1-2" data-name="Capa 1">
      <rect class="cls-1" width="22.11" height="22.11" rx="11.05" transform="translate(11.05 -4.58) rotate(45)"/>
      <rect class="cls-1" x="42.01" y="-3.87" width="22.11" height="60.12" rx="11.05" transform="translate(34.06 -29.85) rotate(45)"/>
      <rect class="cls-1" x="85.49" y="-11.28" width="22.11" height="102.27" rx="11.05" transform="translate(56.46 -56.59) rotate(45)"/>
      <path class="cls-2" d="M175.09,19.62c.3,0,.6.3.78,1l10,36.38c.79,2.89,1,3.25,2.23,3.25,1.62,0,1.86-.36,2.58-3.25l9.57-36.38c.17-.66.42-1,.78-1h4.69c.66,0,.9.3.78,1l-10,37.83a22.13,22.13,0,0,1-1.63,4.69c-.9,1.68-2.4,2.34-6.73,2.34-2.77,0-4.57-.36-5.41-1.14s-1.69-2.71-2.53-5.89L169.62,20.58c-.12-.66.12-1,.78-1Z"/>
      <path class="cls-2" d="M220.71,19.62c.6,0,.9.3.9,1V64.24a.8.8,0,0,1-.9.9h-4.27a.8.8,0,0,1-.9-.9V20.58c0-.66.3-1,.9-1Z"/>
      <path class="cls-2" d="M265.68,24.73c2.89,3.55,4.33,9.44,4.33,17.62s-1.44,14.13-4.33,17.74-7.63,5.35-14.37,5.35c-7,0-12.56-.12-16.53-.42-.72-.06-.9-.18-.9-.84V20.64c0-.72.18-.84.9-.9,4-.3,9.5-.42,16.53-.42C258.05,19.32,262.86,21.12,265.68,24.73ZM240,24.67V60.09h11.36c4.57,0,7.82-1.38,9.68-4.09s2.89-7.34,2.89-13.65-1-10.76-3.07-13.53-5.47-4.15-10.34-4.15Z"/>
      <path class="cls-2" d="M301.93,32.49a.91.91,0,0,1,.84,1V36.1a.8.8,0,0,1-.91.9h-9.07c-3.55,0-5.78.72-6.74,2.22s-1.44,4.63-1.44,9.5.48,7.94,1.44,9.44,3.19,2.23,6.74,2.23h9.07a.8.8,0,0,1,.91.9v2.59a.91.91,0,0,1-.84,1,68.85,68.85,0,0,1-9.14.54c-6,0-9.2-.72-11.37-3.37s-2.58-6.31-2.58-13.35.48-10.7,2.58-13.34S286.77,32,292.79,32A68.85,68.85,0,0,1,301.93,32.49Z"/>
      <path class="cls-2" d="M316.28,19.68a.8.8,0,0,1,.91.9V32.25c2-.18,4.51-.3,7.63-.3a39.41,39.41,0,0,1,6.8.42,8.22,8.22,0,0,1,4.15,1.86c2.4,1.93,3,5.29,3,11.79V64.24a.8.8,0,0,1-.9.9h-4a.8.8,0,0,1-.9-.9V46.5c0-4.63-.24-7-1.68-8.18s-2.53-1.38-5.9-1.38h-8.23v27.3a.8.8,0,0,1-.91.9h-4a.8.8,0,0,1-.91-.9V20.58a.8.8,0,0,1,.91-.9Z"/>
      <path class="cls-2" d="M373.27,41.39v21a1.64,1.64,0,0,1-1.14,1.69c-2.34.9-6.79,1.32-13.35,1.32-4.21,0-7.21-.66-9-1.92s-2.64-3.91-2.64-7.76c0-6.92,3.42-9.26,10.64-9.26l9.68-.06v-4c0-3.79-2.22-5.41-7.82-5.41h-9c-.72,0-.9-.18-.9-.9V33.63c0-.66.18-.78.84-1a54.7,54.7,0,0,1,9.08-.72C369.06,32,373.27,34.83,373.27,41.39Zm-5.77,9.74h-9.56c-3.43,0-5.05,1.2-5.05,4.51,0,3.85,1.8,4.87,6.92,4.87a32,32,0,0,0,7.69-.72Z"/>
      <path class="cls-2" d="M386.61,26.17c-2.35,0-3.55-1.2-3.55-3.54s1.2-3.49,3.55-3.49,3.55,1.14,3.55,3.49S389,26.17,386.61,26.17Zm2,6.08a.8.8,0,0,1,.91.9V64.24a.8.8,0,0,1-.91.9h-4a.8.8,0,0,1-.9-.9V33.15a.8.8,0,0,1,.9-.9Z"/>
      <path class="cls-2" d="M420.34,32.37a8.15,8.15,0,0,1,4.14,1.86c2.41,1.93,3,5.29,3,11.79V64.24c0,.6-.36.9-1,.9h-3.85a.8.8,0,0,1-.9-.9V46.5a20.66,20.66,0,0,0-1-7.28,2.63,2.63,0,0,0-1.51-1.5c-1.44-.66-2.4-.72-5.11-.72h-8.23V64.24a.8.8,0,0,1-.91.9h-4a.8.8,0,0,1-.9-.9V33.87c0-.78.3-.84.9-1a66.23,66.23,0,0,1,12.51-1A39.41,39.41,0,0,1,420.34,32.37Z"/>
    </g>
  </g>
</svg>
