<?xml version="1.0"?>
<svg xmlns="http://www.w3.org/2000/svg" viewBox="0 0 170.91 57.25">
  <defs>
    <style>.cls-1{fill:#fff;}</style>
  </defs>
  <g id="Capa_2" data-name="Capa 2">
    <g id="Layer_1" data-name="Layer 1">
      <path class="cls-1" d="M162.44,57.25H8.47A8.48,8.48,0,0,1,0,48.79V8.47A8.48,8.48,0,0,1,8.47,0h154a8.48,8.48,0,0,1,8.47,8.47V48.79A8.48,8.48,0,0,1,162.44,57.25ZM8.47,2A6.47,6.47,0,0,0,2,8.47V48.79a6.47,6.47,0,0,0,6.47,6.46h154a6.47,6.47,0,0,0,6.47-6.46V8.47A6.47,6.47,0,0,0,162.44,2Z"/>
      <path class="cls-1" d="M56.79,16.71H55.66a8.09,8.09,0,0,0-.32-1.33H53.7a7.34,7.34,0,0,0-.34,1.33H52.3a23.77,23.77,0,0,1,.82-2.27A16.31,16.31,0,0,0,54,12.09h1.34A19.22,19.22,0,0,0,56,14.41,20.37,20.37,0,0,1,56.79,16.71Zm-1.63-2a18.78,18.78,0,0,1-.61-2h-.06q0,.13-.63,2Z"/>
      <path class="cls-1" d="M61.37,16.71h-.88a8.14,8.14,0,0,0-1-1.53,8.88,8.88,0,0,1-1.17-2H58.3a12.41,12.41,0,0,1,.09,1.41c0,.58,0,1.29,0,2.13h-.87c0-.73.06-1.54.06-2.41s0-1.6-.06-2.21h1.06a6.47,6.47,0,0,0,.87,1.5,8.84,8.84,0,0,1,1.07,1.89h.06a12.57,12.57,0,0,1-.09-1.42c0-.64,0-1.29-.05-2h.89c0,.59,0,1.32,0,2.21S61.34,16,61.37,16.71Z"/>
      <path class="cls-1" d="M66.51,14.24A2.58,2.58,0,0,1,65.86,16a2.25,2.25,0,0,1-1.8.75c-.35,0-.84,0-1.45,0,0-.71,0-1.52,0-2.41s0-1.6,0-2.21h1.47a2.36,2.36,0,0,1,1.85.64A2.2,2.2,0,0,1,66.51,14.24Zm-1,.15a1.67,1.67,0,0,0-.4-1.14,1.49,1.49,0,0,0-1.21-.47l-.42,0c0,.48,0,1,0,1.49s0,1.12,0,1.68A2.45,2.45,0,0,0,64,16a1.35,1.35,0,0,0,1.13-.47A1.81,1.81,0,0,0,65.54,14.39Z"/>
      <path class="cls-1" d="M71.25,16.71h-1a6.63,6.63,0,0,0-.63-1.55.82.82,0,0,0-.71-.29h-.39c0,.61,0,1.22,0,1.84h-1c0-.71,0-1.52,0-2.41s0-1.6,0-2.21H69.2c1.08,0,1.63.37,1.63,1.11a1.26,1.26,0,0,1-.93,1.24v.05a1.1,1.1,0,0,1,.62.56A11.49,11.49,0,0,1,71.25,16.71Zm-1.33-3.26c0-.47-.3-.71-.91-.71a3.42,3.42,0,0,0-.59,0c0,.37,0,.85,0,1.43h.33C69.55,14.23,69.92,14,69.92,13.45Z"/>
      <path class="cls-1" d="M76.34,14.32a2.57,2.57,0,0,1-.67,1.8,2.16,2.16,0,0,1-1.65.72,2.09,2.09,0,0,1-1.57-.66,2.33,2.33,0,0,1-.63-1.67,2.53,2.53,0,0,1,.67-1.81A2.14,2.14,0,0,1,74.14,12a2.1,2.1,0,0,1,1.57.65A2.33,2.33,0,0,1,76.34,14.32Zm-1,.1a1.83,1.83,0,0,0-.38-1.2,1.18,1.18,0,0,0-.94-.46,1.08,1.08,0,0,0-.88.46,1.85,1.85,0,0,0-.36,1.17,1.86,1.86,0,0,0,.38,1.21,1.21,1.21,0,0,0,.94.46,1.11,1.11,0,0,0,.88-.47A1.85,1.85,0,0,0,75.36,14.42Z"/>
      <path class="cls-1" d="M78.34,16.71h-1c0-.73,0-1.54,0-2.41s0-1.6,0-2.21h1c0,.6,0,1.33,0,2.21S78.31,16,78.34,16.71Z"/>
      <path class="cls-1" d="M83.48,14.24A2.62,2.62,0,0,1,82.84,16a2.27,2.27,0,0,1-1.81.75c-.35,0-.83,0-1.45,0,0-.71,0-1.52,0-2.41s0-1.6,0-2.21h1.47a2.4,2.4,0,0,1,1.86.64A2.23,2.23,0,0,1,83.48,14.24Zm-1,.15a1.72,1.72,0,0,0-.4-1.14,1.52,1.52,0,0,0-1.21-.47l-.42,0c0,.48,0,1,0,1.49s0,1.12,0,1.68A2.32,2.32,0,0,0,81,16a1.36,1.36,0,0,0,1.13-.47A1.87,1.87,0,0,0,82.52,14.39Z"/>
      <path class="cls-1" d="M90.31,16.71H89.17a8.09,8.09,0,0,0-.32-1.33H87.21a7.34,7.34,0,0,0-.34,1.33H85.81a22.52,22.52,0,0,1,.83-2.27,17,17,0,0,0,.82-2.35H88.8a18.36,18.36,0,0,0,.76,2.32A20.37,20.37,0,0,1,90.31,16.71Zm-1.64-2a18.78,18.78,0,0,1-.61-2H88c0,.09-.21.75-.62,2Z"/>
      <path class="cls-1" d="M94.44,13.3a1.37,1.37,0,0,1-.63,1.25,2.78,2.78,0,0,1-1.54.41H92c0,.45,0,1,0,1.76h-1c0-.68.05-1.49.05-2.41s0-1.59-.05-2.21h1.77a2,2,0,0,1,1.14.31A1,1,0,0,1,94.44,13.3Zm-.91.2c0-.51-.34-.76-1-.76a3.38,3.38,0,0,0-.53,0c0,.45,0,1,0,1.52h.2C93.1,14.32,93.53,14,93.53,13.5Z"/>
      <path class="cls-1" d="M98.7,13.3a1.37,1.37,0,0,1-.63,1.25,2.82,2.82,0,0,1-1.55.41h-.23c0,.45,0,1,0,1.76h-1c0-.68,0-1.49,0-2.41s0-1.59,0-2.21h1.76a2,2,0,0,1,1.14.31A1,1,0,0,1,98.7,13.3Zm-.92.2c0-.51-.33-.76-1-.76a3.5,3.5,0,0,0-.54,0c0,.45,0,1,0,1.52h.21C97.35,14.32,97.78,14,97.78,13.5Z"/>
      <path class="cls-1" d="M105.65,14.32a2.56,2.56,0,0,1-.66,1.8,2.18,2.18,0,0,1-1.65.72,2.08,2.08,0,0,1-1.57-.66,2.33,2.33,0,0,1-.63-1.67,2.53,2.53,0,0,1,.67-1.81,2.13,2.13,0,0,1,1.64-.71,2.07,2.07,0,0,1,1.57.65A2.33,2.33,0,0,1,105.65,14.32Zm-1,.1a1.83,1.83,0,0,0-.38-1.2,1.18,1.18,0,0,0-.94-.46,1.07,1.07,0,0,0-.88.46,1.85,1.85,0,0,0-.36,1.17,1.81,1.81,0,0,0,.38,1.21,1.17,1.17,0,0,0,.93.46,1.08,1.08,0,0,0,.88-.47A1.86,1.86,0,0,0,104.68,14.42Z"/>
      <path class="cls-1" d="M110.46,16.71h-.87a8.57,8.57,0,0,0-1-1.53,8.33,8.33,0,0,1-1.16-2h-.06a12.41,12.41,0,0,1,.09,1.41c0,.58,0,1.29,0,2.13h-.87c0-.73,0-1.54,0-2.41s0-1.6,0-2.21h1a6.31,6.31,0,0,0,.88,1.5,8.84,8.84,0,0,1,1.07,1.89h0a12.4,12.4,0,0,1-.08-1.42c0-.64,0-1.29,0-2h.88c0,.59,0,1.32,0,2.21S110.43,16,110.46,16.71Z"/>
      <path class="cls-1" d="M68.61,31.51a7.41,7.41,0,0,1-2,5.48,7.94,7.94,0,0,1-6,2.43A8.45,8.45,0,0,1,52,30.84a8.44,8.44,0,0,1,8.52-8.57,8.43,8.43,0,0,1,3.37.69,6.8,6.8,0,0,1,2.57,1.83L65,26.24a5.56,5.56,0,0,0-4.5-1.95,6.34,6.34,0,0,0-6.37,6.55,6.34,6.34,0,0,0,6.37,6.56,6.23,6.23,0,0,0,4.59-1.83,5.19,5.19,0,0,0,1.37-3.33h-6v-2h8A6.72,6.72,0,0,1,68.61,31.51Z"/>
      <path class="cls-1" d="M71.11,29.16a5.89,5.89,0,0,1,8.3,0A5.93,5.93,0,0,1,81,33.44a5.93,5.93,0,0,1-1.63,4.27,5.89,5.89,0,0,1-8.3,0,6,6,0,0,1-1.63-4.27A6,6,0,0,1,71.11,29.16Zm1.57,7.22a3.55,3.55,0,0,0,5.16,0,4,4,0,0,0,1.09-2.94,4,4,0,0,0-1.09-2.95,3.55,3.55,0,0,0-5.16,0,4.05,4.05,0,0,0-1.09,2.95A4,4,0,0,0,72.68,36.38Z"/>
      <path class="cls-1" d="M83.38,29.16a5.89,5.89,0,0,1,8.3,0,6,6,0,0,1,1.62,4.28,6,6,0,0,1-1.62,4.27,5.89,5.89,0,0,1-8.3,0,5.93,5.93,0,0,1-1.63-4.27A5.93,5.93,0,0,1,83.38,29.16ZM85,36.38a3.55,3.55,0,0,0,5.16,0,4,4,0,0,0,1.08-2.94,4,4,0,0,0-1.08-2.95,3.55,3.55,0,0,0-5.16,0,4,4,0,0,0-1.09,2.95A4,4,0,0,0,85,36.38Z"/>
      <path class="cls-1" d="M99.54,44.37a5.07,5.07,0,0,1-3.26-1,5.82,5.82,0,0,1-1.81-2.28l1.93-.8a3.13,3.13,0,0,0,1.18,1.53,3.2,3.2,0,0,0,2,.62,3.6,3.6,0,0,0,2.74-1,3.94,3.94,0,0,0,1-2.83V37.49h-.1a4.23,4.23,0,0,1-1.56,1.38,4.69,4.69,0,0,1-2.26.55A4.91,4.91,0,0,1,95.6,37.7,6.05,6.05,0,0,1,94,33.44a6.06,6.06,0,0,1,1.59-4.27,4.91,4.91,0,0,1,3.76-1.72,4.69,4.69,0,0,1,2.26.55,4.23,4.23,0,0,1,1.56,1.38h.1V27.82h2V38.48a5.62,5.62,0,0,1-1.67,4.39A5.91,5.91,0,0,1,99.54,44.37Zm.16-6.88a3.33,3.33,0,0,0,2.53-1.1,4.09,4.09,0,0,0,1-3,4.1,4.1,0,0,0-1-3,3.44,3.44,0,0,0-5,0,4.07,4.07,0,0,0-1.06,2.95,4.07,4.07,0,0,0,1.06,2.94A3.35,3.35,0,0,0,99.7,37.49Z"/>
      <path class="cls-1" d="M109.4,39.05h-2.11V22.64h2.11Z"/>
      <path class="cls-1" d="M116.36,39.42a5.41,5.41,0,0,1-4.13-1.7,6,6,0,0,1-1.6-4.28,6.18,6.18,0,0,1,1.55-4.22,5,5,0,0,1,3.95-1.77,5.16,5.16,0,0,1,4,1.63,6.14,6.14,0,0,1,1.51,4.36l0,.38h-8.87a3.8,3.8,0,0,0,1.14,2.69,3.46,3.46,0,0,0,2.44,1,3,3,0,0,0,3.07-1.92l1.88.78a5.08,5.08,0,0,1-1.81,2.19A5.32,5.32,0,0,1,116.36,39.42Zm3-7.34a3,3,0,0,0-.88-1.83,3.17,3.17,0,0,0-2.42-.87,3,3,0,0,0-2,.73,3.76,3.76,0,0,0-1.18,2Z"/>
      <path class="cls-1" d="M129.94,39.05h-2.11V22.64h5.59A5.21,5.21,0,0,1,137,24a4.79,4.79,0,0,1,0,7,5.21,5.21,0,0,1-3.61,1.38h-3.48Zm0-8.66h3.53a2.73,2.73,0,0,0,2.13-.9,2.83,2.83,0,0,0,0-3.94,2.73,2.73,0,0,0-2.13-.9h-3.53Z"/>
      <path class="cls-1" d="M142,39.05h-2.11V22.64H142Z"/>
      <path class="cls-1" d="M147.47,39.42a4.47,4.47,0,0,1-3-1,3.43,3.43,0,0,1-1.2-2.73,3.38,3.38,0,0,1,1.42-2.88,5.79,5.79,0,0,1,3.51-1,6,6,0,0,1,3,.69V32.1a2.53,2.53,0,0,0-.84-2,3.09,3.09,0,0,0-2.09-.74,3.21,3.21,0,0,0-1.66.43,2.23,2.23,0,0,0-1,1.19l-1.93-.82a4.34,4.34,0,0,1,1.54-1.87,4.92,4.92,0,0,1,3-.86,5.2,5.2,0,0,1,3.58,1.26,4.5,4.5,0,0,1,1.42,3.56v6.78h-2V37.49h-.09A4.12,4.12,0,0,1,147.47,39.42Zm.35-1.93a3.42,3.42,0,0,0,2.37-1,3,3,0,0,0,1.06-2.31,4.2,4.2,0,0,0-2.68-.73,3.44,3.44,0,0,0-2.31.67,2,2,0,0,0-.78,1.55,1.49,1.49,0,0,0,.71,1.31A2.82,2.82,0,0,0,147.82,37.49Z"/>
      <path class="cls-1" d="M157.86,44h-2.18l2.61-5.66-4.63-10.52H156l3.35,8.07h0l3.25-8.07h2.29Z"/>
      <path class="cls-1" d="M12.68,30.57V14.84a2.35,2.35,0,0,1,.58-1.72c.17-.19.3-.24.52,0l10.6,10.79c2.29,2.32,4.57,4.65,6.87,7,.23.22.25.34,0,.57q-8.43,8.39-16.84,16.8a.57.57,0,0,1-.91.05,2.13,2.13,0,0,1-.83-1.81c0-3.11,0-6.21,0-9.32V30.57Z"/>
      <path class="cls-1" d="M14.69,12.52a2,2,0,0,1,1,.29L37.26,24.87c.33.18.32.29.07.54-1.61,1.58-3.2,3.17-4.79,4.76-.17.18-.28.28-.51,0L14.88,12.75C14.83,12.7,14.79,12.64,14.69,12.52Z"/>
      <path class="cls-1" d="M16.3,48.1q7.82-7.91,15.63-15.82c.32-.32.47-.28.76,0,1.32,1.38,2.66,2.73,4,4.08.23.24.25.34-.07.51l-20.06,11A2.71,2.71,0,0,0,16.3,48.1Z"/>
      <path class="cls-1" d="M46.07,30.71A1.64,1.64,0,0,1,45.35,32a9.2,9.2,0,0,1-1,.61c-2,1.11-4.05,2.22-6.07,3.35a.46.46,0,0,1-.66-.09c-1.43-1.48-2.88-3-4.34-4.42-.21-.21-.22-.33,0-.54q2.55-2.52,5.07-5.05a.41.41,0,0,1,.59-.08c2,1.13,4,2.25,6,3.37A1.83,1.83,0,0,1,46.07,30.71Z"/>
    </g>
  </g>
</svg>
