<svg width="74" height="74" viewBox="0 0 74 74" fill="none" xmlns="http://www.w3.org/2000/svg">
<path d="M47.7895 61.2666H25.9052C23.6473 61.2666 21.7368 59.3599 21.7368 57.1066V16.8933C21.7368 14.6399 23.6473 12.7333 25.9052 12.7333H46.921C49.3526 12.7333 51.2631 14.6399 51.2631 16.8933V57.7999C51.2631 59.7066 49.7 61.2666 47.7895 61.2666Z" stroke="#7B788A" stroke-width="2" stroke-miterlimit="10" stroke-linecap="round" stroke-linejoin="round"/>
<path d="M21.7368 54.3333H51.2631" stroke="#7B788A" stroke-width="2" stroke-miterlimit="10" stroke-linecap="round" stroke-linejoin="round"/>
<path d="M21.7368 19.6666H51.2631" stroke="#7B788A" stroke-width="2" stroke-miterlimit="10" stroke-linecap="round" stroke-linejoin="round"/>
<path d="M45.0105 37C45.0105 37 41.3631 42.2 36.5 42.2C35.1105 42.2 33.721 41.68 32.5052 40.9867C29.7263 39.6 27.9894 37 27.9894 37C27.9894 37 31.6368 31.8 36.5 31.8C38.0631 31.8 39.4526 32.32 40.6684 33.0134C43.2737 34.5734 45.0105 37 45.0105 37Z" stroke="#7B788A" stroke-width="2" stroke-miterlimit="10" stroke-linecap="round" stroke-linejoin="round"/>
<path d="M38.4105 37.0001C38.4105 38.0401 37.5421 38.9067 36.5 38.9067C35.4579 38.9067 34.5895 38.0401 34.5895 37.0001C34.5895 35.9601 35.4579 35.0934 36.5 35.0934" stroke="#7B788A" stroke-width="2" stroke-miterlimit="10" stroke-linecap="round" stroke-linejoin="round"/>
<rect x="1" y="1" width="72" height="72" rx="3" stroke="#767486" stroke-width="2"/>
</svg>
