<?xml version="1.0"?>
<svg xmlns="http://www.w3.org/2000/svg" xmlns:xlink="http://www.w3.org/1999/xlink" viewBox="0 0 219.21 72.44">
  <defs>
    <style>.cls-1{fill:url(#Degradado_sin_nombre_74);}.cls-2{fill:#181b35;}.cls-3{fill:#bb2574;}.cls-4{fill:#e05d9d;}</style>
    <linearGradient id="Degradado_sin_nombre_74" y1="43.05" x2="48.01" y2="43.05" gradientUnits="userSpaceOnUse">
      <stop offset="0" stop-color="#524394"/>
      <stop offset="1" stop-color="#6e318a"/>
    </linearGradient>
  </defs>
  <g id="Capa_2" data-name="Capa 2">
    <g id="Capa_1-2" data-name="Capa 1">
      <path class="cls-1" d="M32.2,26.67V41.21A8.19,8.19,0,0,1,24,49.4h0a8.2,8.2,0,0,1-8.2-8.19V26.67a5.29,5.29,0,0,0-5.29-5.29H0V40.71a24,24,0,0,0,24,24h0a24,24,0,0,0,24-24V21.38H37.49A5.29,5.29,0,0,0,32.2,26.67Z"/>
      <path class="cls-2" d="M82.2,22.37V38.58H79v-5.4h-.07c0,3.58-2.18,5.73-5.89,5.73-4.23,0-6.74-3.13-6.74-8.43s2.51-8.43,6.74-8.43c3.71,0,5.89,2.14,5.89,5.72H79v-5.4Zm-3,8.11c0-3.52-1.76-5.8-4.79-5.8s-4.78,2.15-4.78,5.8,1.75,5.79,4.78,5.79S79.18,34,79.18,30.48Z"/>
      <path class="cls-2" d="M86.73,30.48c0-5.31,3-8.43,8-8.43,4.1,0,6.83,2.18,7.58,5.92H99.13a4.31,4.31,0,0,0-4.36-3.29c-3,0-4.72,2.15-4.72,5.8s1.72,5.79,4.72,5.79a4.28,4.28,0,0,0,4.42-3.61h3.26c-.69,4-3.45,6.25-7.68,6.25C89.72,38.91,86.73,35.78,86.73,30.48Z"/>
      <path class="cls-2" d="M131.78,28.43V38.58h-3.26V28.52c0-2.44-1.33-3.84-3.61-3.84-2.57,0-4.07,1.83-4.07,4.92v9h-3.25V28.52c0-2.44-1.34-3.84-3.62-3.84-2.57,0-4.1,1.83-4.1,4.92v9h-3.25V22.37h3.25v5.5h.07c0-3.64,2-5.82,5.33-5.82,3.52,0,5.57,2.27,5.57,5.82h.06c0-3.64,2-5.82,5.24-5.82C129.69,22.05,131.78,24.42,131.78,28.43Z"/>
      <path class="cls-2" d="M151.44,30.93H139.26c.13,3.42,1.83,5.44,4.53,5.44a4.21,4.21,0,0,0,4.46-3.52h3.19c-.56,3.81-3.39,6.06-7.65,6.06-4.85,0-7.68-3.13-7.68-8.43s2.83-8.43,7.68-8.43,7.65,3.12,7.65,8.43ZM139.3,29.56h8.91c-.26-3.15-1.85-5-4.42-5S139.56,26.41,139.3,29.56Z"/>
      <path class="cls-2" d="M81.23,48.75V65H78V59.33h-.06c0,3.74-2,6-5.28,6-3.54,0-5.63-2.44-5.63-6.54v-10h3.26v9.89c0,2.54,1.33,4,3.61,4,2.57,0,4.1-1.89,4.1-5.08V48.75Z"/>
      <path class="cls-2" d="M101.18,55V65H97.92v-9.9c0-2.54-1.4-4-3.77-4-2.67,0-4.26,1.89-4.26,5.08V65H86.63V48.75h3.26v5.63H90c0-3.74,2-6,5.44-6C99,48.42,101.18,50.86,101.18,55Z"/>
      <path class="cls-2" d="M106.42,41.69h3.26v3.67h-3.26Zm0,7.06h3.26V65h-3.26Z"/>
      <path class="cls-2" d="M129.4,48.75,124.55,65h-6.22l-4.85-16.21H117l4.42,16h.07l4.42-16Z"/>
      <path class="cls-2" d="M147.33,57.31H135.16c.13,3.42,1.82,5.43,4.53,5.43a4.19,4.19,0,0,0,4.45-3.51h3.19c-.55,3.81-3.38,6.05-7.64,6.05-4.85,0-7.68-3.12-7.68-8.43s2.83-8.43,7.68-8.43,7.64,3.13,7.64,8.43Zm-12.14-1.37h8.92c-.26-3.16-1.85-5-4.42-5S135.46,52.78,135.19,55.94Z"/>
      <path class="cls-2" d="M162.8,48.91l-1,3a4.89,4.89,0,0,0-2.34-.59c-2.8,0-4.43,2.18-4.43,5.89V65H151.8V48.75h3.25V55.1h.07c0-4.2,1.92-6.68,5.17-6.68A6.56,6.56,0,0,1,162.8,48.91Z"/>
      <path class="cls-2" d="M164.62,59.72h3.09c0,2.11,1.47,3.38,4,3.38s3.91-.94,3.91-2.57c0-2.05-2.15-2.41-4.49-2.83-2.8-.46-6-1-6-4.53,0-3,2.44-4.75,6.57-4.75s6.58,2,6.58,5.37h-3.09c0-2-1.27-3.22-3.49-3.22s-3.41.88-3.41,2.34c0,1.7,1.95,2.05,4.16,2.44,2.9.53,6.32,1.11,6.32,4.89,0,3.15-2.64,5-7.07,5S164.62,63.23,164.62,59.72Z"/>
      <path class="cls-2" d="M183.08,41.69h3.25v3.67h-3.25Zm0,7.06h3.25V65h-3.25Z"/>
      <path class="cls-2" d="M195.84,51.12v8.82a2.52,2.52,0,0,0,2.83,2.71,5.3,5.3,0,0,0,2.28-.53V64.6a8.37,8.37,0,0,1-3.32.68c-3.16,0-5-1.85-5-5V51.12h-2.51V48.75h2.74V43.22h3.25v1.36a4.33,4.33,0,0,1-3.12,4.1v.07h8.23v2.37Z"/>
      <path class="cls-2" d="M219.21,48.75l-7.1,23.69h-3.48L210.87,65h-2.7l-4.88-16.21h3.51l4.43,16h.07l4.42-16Z"/>
      <path class="cls-3" d="M24,5.32A35.44,35.44,0,0,1,42.64,0h5V14.53h-5A35.26,35.26,0,0,0,24,19.86Z"/>
      <path class="cls-4" d="M24,5.32A35.5,35.5,0,0,0,5.37,0h-5V14.53h5A35.32,35.32,0,0,1,24,19.86Z"/>
    </g>
  </g>
</svg>
