<svg width="74" height="74" viewBox="0 0 74 74" fill="none" xmlns="http://www.w3.org/2000/svg">
<rect x="1" y="1" width="72" height="72" rx="3" stroke="#7B788A" stroke-width="2"/>
<path d="M41.7958 33.1576V43.0184C41.7958 46.0787 39.4062 48.595 36.5 48.595C33.5938 48.595 31.2042 46.0787 31.2042 43.0184V33.1576C31.2042 31.1854 29.6542 29.5532 27.7812 29.5532H21V42.6784C21 51.7232 27.9104 58.9999 36.5 58.9999C45.0896 58.9999 52 51.7232 52 42.6784V29.5532H45.2188C43.3458 29.5532 41.7958 31.1174 41.7958 33.1576Z" fill="#7B788A"/>
<path d="M36.5 18.6043C40.1167 16.2921 44.3146 15 48.5125 15H51.7417V24.8609H48.5125C44.25 24.8609 40.1167 26.085 36.5 28.4652V18.6043Z" fill="#7B788A"/>
<path d="M36.5 18.6043C32.8833 16.2921 28.75 15 24.4875 15H21.2583V24.8609H24.4875C28.75 24.8609 32.8833 26.085 36.5 28.4652V18.6043Z" fill="#7B788A"/>
</svg>
