<svg width="74" height="74" viewBox="0 0 74 74" fill="none" xmlns="http://www.w3.org/2000/svg">
<rect y="74" width="74" height="74" rx="4" transform="rotate(-90 0 74)" fill="url(#paint0_linear)"/>
<path d="M56 59H42C39.8 59 38 57.2 38 55V43C38 42.4 38.4 42 39 42H59C59.6 42 60 42.4 60 43V55C60 57.2 58.2 59 56 59Z" stroke="#EAE8F1" stroke-width="2" stroke-miterlimit="10" stroke-linecap="round" stroke-linejoin="round"/>
<path d="M42 42V40C42 36.1 45.2 33 49 33C52.8 33 56 36.1 56 40V42" stroke="#EAE8F1" stroke-width="2" stroke-miterlimit="10" stroke-linecap="round" stroke-linejoin="round"/>
<path d="M49 51C50.1046 51 51 50.1046 51 49C51 47.8954 50.1046 47 49 47C47.8954 47 47 47.8954 47 49C47 50.1046 47.8954 51 49 51Z" stroke="#EAE8F1" stroke-width="2" stroke-miterlimit="10" stroke-linecap="round" stroke-linejoin="round"/>
<path d="M49 51V54" stroke="#EAE8F1" stroke-width="2" stroke-miterlimit="10" stroke-linecap="round" stroke-linejoin="round"/>
<path d="M23.7 23C25.9092 23 27.7 20.7614 27.7 18C27.7 15.2386 25.9092 13 23.7 13C21.4909 13 19.7 15.2386 19.7 18C19.7 20.7614 21.4909 23 23.7 23Z" stroke="#EAE8F1" stroke-width="2" stroke-miterlimit="10" stroke-linecap="round" stroke-linejoin="round"/>
<path d="M18 39V59" stroke="#EAE8F1" stroke-width="2" stroke-miterlimit="10" stroke-linecap="round" stroke-linejoin="round"/>
<path d="M24 59V44" stroke="#EAE8F1" stroke-width="2" stroke-miterlimit="10" stroke-linecap="round" stroke-linejoin="round"/>
<path d="M21 26H20C16.7 26 14 28.7 14 32V34C14 36.2 15.8 38 18 38H21.5C22.9 38 24 36.9 24 35.5C24 34.1 22.9 33 21.5 33H19" stroke="#EAE8F1" stroke-width="2" stroke-miterlimit="10" stroke-linecap="round" stroke-linejoin="round"/>
<path d="M27 26H27.7C29.5 26 30.3 26.7 30.9 27.1L34.2 29.3C34.7 29.6 35.4 29.7 36 29.5L37.9 28.8C39.4 28.2 40.5 29 41 30.1C41.5 31.3 40.8 32.7 39.6 33.3L36.2 34.8C35.4 35.1 34.5 35.1 33.7 34.7L30 32.8V59" stroke="#EAE8F1" stroke-width="2" stroke-miterlimit="10" stroke-linecap="round" stroke-linejoin="round"/>
<defs>
<linearGradient id="paint0_linear" x1="37" y1="74" x2="37" y2="148" gradientUnits="userSpaceOnUse">
<stop stop-color="#B24792"/>
<stop offset="1" stop-color="#F05E7B"/>
</linearGradient>
</defs>
</svg>
